<svg width="178" height="116" viewBox="0 0 178 116" fill="none" xmlns="http://www.w3.org/2000/svg">
<mask id="path-1-outside-1_254_229" maskUnits="userSpaceOnUse" x="6.56021" y="3.84177" width="165" height="108" fill="black">
<rect fill="white" x="6.56021" y="3.84177" width="165" height="108"/>
<path d="M9.43402 70.1596C9.01911 69.5971 8.79213 68.921 8.78465 68.2252C8.7466 67.4768 8.76278 66.7266 8.83305 65.9804C8.88218 65.4365 8.96163 64.8957 9.07102 64.3604L9.09925 64.2291V64.1614L9.22832 63.6122C9.35739 63.0907 9.50259 62.5733 9.66796 62.0559C10.3599 59.9653 11.2498 57.9437 12.3259 56.0179C13.4163 54.0475 14.6554 52.1608 16.0326 50.3739C17.4313 48.5577 18.98 46.859 20.6629 45.2951C22.3569 43.7037 24.2188 42.2959 26.2168 41.096C28.224 39.8801 30.3971 38.9539 32.6702 38.3456C34.956 37.7343 37.3345 37.5335 39.6922 37.7526C42.0637 37.9407 44.3711 38.6058 46.4723 39.7069C47.4919 40.2777 48.4102 41.009 49.1908 41.8721C49.9662 42.7405 50.5769 43.7396 50.9937 44.8215C51.8052 47.062 52.0422 49.4659 51.6834 51.8187C51.3531 54.2272 50.664 56.5744 49.6385 58.7841C48.6395 61.0176 47.2967 63.0852 45.6576 64.9137C44.864 65.8059 43.928 66.5641 42.8867 67.1585C42.4006 67.4245 41.8685 67.5986 41.3177 67.672C40.8436 67.7407 40.36 67.648 39.9463 67.4093C39.8081 67.3006 39.7137 67.1467 39.6801 66.9755C39.6358 66.7453 39.6358 66.509 39.6801 66.2789C39.8016 65.7212 40.0069 65.1846 40.2892 64.6868C40.8914 63.633 41.6274 62.6592 42.4793 61.7892C44.1866 59.9931 46.2037 58.5106 48.4366 57.4109C50.6509 56.3403 53.1233 55.6994 55.5232 55.994C56.7186 56.1356 57.8733 56.5118 58.9192 57.1005C59.4419 57.3997 59.9372 57.7433 60.3995 58.1274L60.7423 58.4219C60.8512 58.5214 60.94 58.613 61.0368 58.7125C61.2197 58.9194 61.3817 59.1433 61.5208 59.3812C62.0676 60.4255 62.3708 61.5774 62.4081 62.7524C62.4707 63.9748 62.4086 65.2002 62.2226 66.4103C61.837 68.8646 61.1713 71.268 60.2382 73.5747C59.3311 75.8866 58.1835 78.0995 56.8138 80.1779C56.1366 81.205 55.3802 82.1791 54.5511 83.0914C53.7488 83.9936 52.8294 84.7872 51.8165 85.4517C50.8642 86.104 49.7473 86.4829 48.5898 86.5463C48.3195 86.5497 48.0495 86.5284 47.7832 86.4826C47.498 86.4328 47.2165 86.365 46.9402 86.2796C46.3993 86.127 45.888 85.8862 45.4277 85.5671C44.9969 85.2651 44.6479 84.8633 44.4113 84.3969C44.196 83.9341 44.1084 83.4233 44.1572 82.9163C44.3171 81.8357 44.8954 80.8583 45.7705 80.1898C46.6684 79.4797 47.7342 79.0059 48.8681 78.8127L49.2997 78.741L49.7635 78.6734L50.6952 78.538C51.3164 78.4465 51.9375 78.343 52.5546 78.2316C55.0425 77.8089 57.4767 77.1216 59.8146 76.1817C62.1539 75.2399 64.3225 73.9293 66.2357 72.301C66.7157 71.903 67.1554 71.4572 67.6031 71.0273C68.0508 70.5975 68.4581 70.1198 68.8413 69.6303C69.2245 69.1407 69.5955 68.6511 69.9585 68.1536C70.132 67.8989 70.2933 67.6362 70.4587 67.3775C70.624 67.1187 70.7894 66.86 70.9346 66.5814C72.1319 64.4647 73.0418 62.2018 73.641 59.8508C74.2304 57.5503 74.6177 55.2039 74.7986 52.8376C75.0198 50.4893 74.9317 48.1226 74.5364 45.7966C74.3289 44.5923 73.8952 43.4368 73.2578 42.3895C72.8951 41.8059 72.3739 41.3343 71.7534 41.0283C71.4028 40.8635 71.0158 40.7882 70.6281 40.8094C70.2464 40.8319 69.8752 40.9408 69.5431 41.1278C68.9634 41.4724 68.4797 41.9539 68.1355 42.5288C67.8136 43.0479 67.5576 43.604 67.3732 44.1846C67.0206 45.2946 66.8172 46.4454 66.7681 47.6076C66.6572 49.8539 66.8553 52.1046 67.357 54.2984C67.599 55.3598 67.8881 56.4132 68.2242 57.4587C68.5523 58.4987 68.947 59.517 69.406 60.5076C69.8583 61.5432 70.4888 62.4939 71.2694 63.3176C71.7147 63.7679 72.2705 64.097 72.8827 64.2729C73.5373 64.4264 74.2256 64.3519 74.8308 64.0619C75.3674 63.8079 75.8548 63.463 76.2707 63.043C76.6635 62.6588 77.0237 62.2435 77.3476 61.8011C77.9635 60.949 78.511 60.0507 78.9852 59.1145C79.8994 57.3091 80.6746 55.4384 81.3044 53.5183C81.6389 52.5741 81.9084 51.6087 82.111 50.6286C82.2861 49.6657 82.4113 48.6946 82.4861 47.7191C82.6394 45.7966 82.6959 43.9179 82.7201 42.0671C82.7725 38.3735 82.7201 34.8112 82.6676 31.3882C82.6152 27.9652 82.6233 24.6695 82.5224 21.5132C82.4982 20.7171 82.466 19.9211 82.4135 19.1569C82.3881 18.7501 82.341 18.3448 82.2724 17.9429C82.2609 17.8811 82.2461 17.82 82.228 17.7598C82.2037 17.6628 82.1671 17.5692 82.1191 17.4812C82.0586 17.4215 82.0667 17.2703 81.6432 17.131C81.5166 17.1056 81.3852 17.1169 81.265 17.1635C81.1448 17.2101 81.0408 17.29 80.9656 17.3936C80.8728 17.5807 80.9293 17.2941 80.8002 17.7917V17.8633L80.772 18.4285C80.6953 19.933 80.6389 21.3978 80.5945 22.8267C80.5058 25.6805 80.4937 28.399 80.538 30.9264C80.6106 35.0062 80.8163 39.0302 81.5746 42.9269C81.9455 44.8599 82.4853 46.7576 83.1879 48.5987C83.5348 49.5102 83.9301 50.3978 84.3576 51.2655C84.5593 51.7033 84.8013 52.1172 85.0231 52.5431C85.2567 53.0174 85.5567 53.4569 85.9145 53.8486C86.1478 54.0964 86.4384 54.2849 86.7615 54.3979C87.1585 54.5029 87.5813 54.4501 87.9392 54.2506C88.207 54.0856 88.4421 53.8738 88.633 53.6257C88.7975 53.4168 88.9458 53.1959 89.0766 52.965C89.5243 52.108 89.8851 51.2094 90.1535 50.2823C90.6703 48.5236 91.093 46.7394 91.42 44.9369C92.0895 41.3985 92.5614 37.9197 92.9729 34.5166C93.7795 27.7144 94.32 21.2067 94.7032 14.9896C94.7919 13.4333 94.8847 11.9049 94.9129 10.3606C94.9182 10.2647 94.9045 10.1687 94.8726 10.078C94.8086 9.90586 94.6798 9.76472 94.513 9.68391C94.3462 9.60311 94.1543 9.58886 93.9772 9.64413C93.8823 9.67195 93.7942 9.71884 93.7185 9.78186C93.6429 9.84488 93.5813 9.92266 93.5375 10.0103C93.5 10.0794 93.4767 10.1552 93.469 10.2332V10.3048L93.4407 10.4481L93.3439 11.0213C93.2875 11.3994 93.231 11.7736 93.1786 12.1517C93.0737 12.9 92.985 13.6403 92.9043 14.3806C92.5776 17.3339 92.3638 20.2236 92.2388 23.0416C92.1137 25.8596 92.0855 28.6139 92.1984 31.2966C92.2798 33.9275 92.6052 36.5455 93.1705 39.1178C93.4493 40.3926 93.911 41.6216 94.5418 42.7677C94.8769 43.3692 95.326 43.9016 95.8648 44.3359C96.4349 44.8048 97.1409 45.0834 97.8814 45.1319H98.1517H98.4179C98.633 45.1219 98.8453 45.0789 99.0471 45.0045C99.3943 44.8503 99.709 44.6329 99.9748 44.3637C100.422 43.9125 100.814 43.4101 101.14 42.8672C101.755 41.8672 102.294 40.8243 102.754 39.7467C103.617 37.7211 104.356 35.6464 104.968 33.5335C105.554 31.5589 106.034 29.5554 106.408 27.5313C106.589 26.5482 106.731 25.573 106.811 24.6019C106.86 24.1202 106.896 23.6347 106.908 23.153C106.908 22.9103 106.908 22.6675 106.908 22.4247C106.912 22.1693 106.898 21.914 106.868 21.6605C106.854 21.5458 106.826 21.4335 106.783 21.3261C106.732 21.205 106.647 21.1012 106.537 21.0276C106.263 20.7609 105.73 21.0276 105.73 21.0953C105.672 21.1483 105.623 21.2101 105.585 21.2784C105.567 21.3106 105.551 21.3438 105.537 21.3779C105.481 21.5185 105.438 21.6637 105.408 21.8117C105.351 22.0585 105.311 22.2893 105.275 22.5202C105.198 22.9819 105.141 23.4317 105.089 23.8814C104.99 24.773 104.912 25.6487 104.855 26.5084C104.734 28.2332 104.68 29.8956 104.694 31.4956C104.691 33.0478 104.795 34.5983 105.004 36.1366C105.107 36.8818 105.274 37.6169 105.504 38.3337C105.616 38.7053 105.768 39.0642 105.956 39.4044C106.176 39.7971 106.496 40.1264 106.884 40.3596C107.102 40.4799 107.343 40.556 107.592 40.5833C107.84 40.6106 108.092 40.5887 108.332 40.5188C108.722 40.4041 109.087 40.2192 109.409 39.9735C109.952 39.5582 110.442 39.0798 110.869 38.5486C111.629 37.6068 112.319 36.6118 112.934 35.5714C113.515 34.6042 114.031 33.6768 114.499 32.7852C114.967 31.8936 115.354 31.0459 115.757 30.2498L116.318 29.0836C116.407 28.8925 116.491 28.6856 116.576 28.4866L116.79 27.9134C117.238 26.625 117.615 25.3136 117.919 23.9849C118.173 22.8665 118.351 21.9431 118.476 21.1988C118.601 20.4544 118.677 19.9211 118.722 19.5589L118.79 19.0255C118.79 19.0255 118.815 18.8226 118.851 18.4086L118.927 17.6126C118.927 17.2941 118.964 16.924 118.988 16.4981C119.012 16.0722 118.988 15.5866 119.012 15.0453C119.036 14.504 118.984 13.899 118.891 13.2383C118.862 12.8905 118.811 12.5449 118.738 12.2034L118.633 11.6541C118.614 11.5521 118.59 11.4511 118.56 11.3516C118.523 11.2126 118.467 11.0788 118.395 10.9536C118.379 10.922 118.358 10.8926 118.335 10.8661C118.305 10.8235 118.269 10.7847 118.23 10.7506C118.193 10.7193 118.154 10.6913 118.113 10.667C118.063 10.6388 118.01 10.6161 117.955 10.5994C117.809 10.56 117.653 10.5684 117.512 10.6233C117.459 10.6581 117.412 10.6995 117.371 10.7467C117.343 10.7671 117.318 10.7897 117.294 10.8143L117.225 10.8899L117.193 10.9377L117.137 11.0332L117.108 11.0969C117.058 11.2259 117.019 11.3591 116.991 11.4949C116.943 11.7218 116.915 11.9288 116.891 12.1437C116.842 12.5656 116.81 12.9955 116.782 13.4373C116.608 16.9598 116.697 21.3978 117 26.8069C117.302 32.216 117.871 38.6441 118.944 46.0712C119.484 49.7848 120.154 53.7531 121.037 57.9642C121.92 62.1753 123.017 66.6093 124.481 71.2462C124.85 72.4085 125.245 73.58 125.667 74.7608L126.252 76.3529L125.974 76.2494C124.832 75.7877 123.63 75.1827 122.404 74.6573C121.178 74.1319 119.908 73.5986 118.601 73.1329C115.908 72.1648 113.117 71.4882 110.276 71.1149C107.276 70.723 104.237 70.723 101.237 71.1149C98.0881 71.5559 95.0112 72.4029 92.0855 73.6344C89.0287 74.9103 86.1222 76.5119 83.4178 78.4107C77.88 82.2874 72.8948 87.3383 68.3613 93.0699C66.0946 95.9436 63.9314 98.9845 61.8717 102.193C60.8391 103.785 59.8281 105.421 58.8386 107.1L58.4715 107.729L57.7536 108.967L57.3906 109.6L57.3019 109.755C57.3019 109.791 57.3019 109.807 57.3019 109.831V109.97V110.523C57.3019 110.563 57.3019 110.627 57.3019 110.651C57.3019 110.674 57.3422 110.718 57.3825 110.77C57.4727 110.885 57.5887 110.978 57.7213 111.041C57.7956 111.08 57.876 111.107 57.9593 111.12H58.1368C58.2287 111.117 58.3196 111.101 58.407 111.072C58.575 111.018 58.7253 110.92 58.8426 110.79L59.9114 109.759L78.0131 92.3415C90.7827 80.0664 108.36 63.1624 128.587 43.8503C133.653 39.0262 138.872 34.043 144.269 29C149.666 23.9571 155.365 18.9937 161.274 14.0662L165.71 10.3486C166.457 9.72373 167.203 9.09485 167.941 8.45005C168.312 8.12766 168.679 7.7973 169.042 7.455L169.316 7.19628L169.385 7.12862C169.417 7.10094 169.447 7.07029 169.473 7.03707L169.711 6.78632L169.949 6.53158L170.143 6.26491C170.208 6.18372 170.266 6.09716 170.316 6.00619L170.405 5.76738C170.437 5.70046 170.45 5.62602 170.441 5.55244V5.45294L170.413 5.35741C170.392 5.28689 170.358 5.2208 170.312 5.16238C170.275 5.11193 170.23 5.06759 170.179 5.03103C169.838 4.85355 169.444 4.79868 169.066 4.8758C168.836 4.8957 168.562 4.93153 168.356 4.95939L167.981 5.01511L167.239 5.14248C166.255 5.31761 165.283 5.5405 164.315 5.73951C162.375 6.17336 160.447 6.64701 158.515 7.14454C150.803 9.13466 143.107 11.4392 135.42 13.8711C113.495 20.8565 91.658 29.0279 70.7531 37.5734C65.5313 39.7148 60.3659 41.8761 55.257 44.0572L47.2548 47.5161L46.6336 47.7907L44.7904 48.5868C43.3527 49.2116 42.0113 50.033 40.8054 51.0266C42.3576 50.8064 43.8721 50.3779 45.3067 49.753L47.1499 48.9569L47.7751 48.6823L55.7652 45.2274C60.8553 43.0542 66.0126 40.8969 71.2371 38.7556C92.1178 30.218 113.93 22.0585 135.823 15.0891C143.487 12.6611 151.174 10.3645 158.85 8.38239C160.765 7.88884 162.685 7.41519 164.605 6.98931C165.565 6.77438 166.525 6.57138 167.481 6.40023L168.195 6.27685L168.55 6.2251L168.183 6.57934C167.832 6.90174 167.477 7.22414 167.114 7.54256C166.384 8.17542 165.646 8.80032 164.904 9.42521L160.467 13.1388C154.546 18.0782 148.819 23.0575 143.41 28.1164C138.001 33.1753 132.786 38.1546 127.72 42.9786C107.489 62.2947 89.9156 79.1988 77.146 91.4738L59.5646 108.394L59.9316 107.769C60.9131 106.108 61.9147 104.485 62.9365 102.901C64.9814 99.7169 67.115 96.7118 69.3576 93.8779C73.8346 88.214 78.7432 83.2506 84.1479 79.4694C86.774 77.6144 89.598 76.0488 92.5695 74.8006C95.3974 73.6286 98.3682 72.8258 101.407 72.4124C104.296 72.0298 107.224 72.0231 110.115 72.3926C112.867 72.753 115.572 73.4082 118.181 74.3468C119.456 74.8006 120.69 75.3061 121.896 75.8394C123.102 76.3728 124.26 76.9459 125.526 77.4594L125.772 77.5509L125.95 77.6106L126.163 77.6703C126.442 77.759 126.74 77.7673 127.022 77.6942C127.148 77.6551 127.262 77.5886 127.358 77.4997C127.454 77.4108 127.528 77.3018 127.575 77.1808C127.658 76.9136 127.658 76.628 127.575 76.3608C127.462 76.0026 127.426 75.919 127.361 75.7479L127.188 75.2822L126.869 74.4066C126.466 73.2403 126.063 72.0821 125.695 70.9318C124.235 66.3386 123.146 61.9245 122.263 57.7493C121.38 53.574 120.718 49.6296 120.182 45.9359C119.117 38.5486 118.569 32.1683 118.25 26.779C117.953 22.3753 117.88 17.9597 118.032 13.5487C118.056 13.1189 118.089 12.7089 118.133 12.3268C118.153 12.1358 118.181 11.9487 118.214 11.7935C118.225 11.7382 118.24 11.6838 118.258 11.6303L118.21 11.6064L118.105 11.5546C118.051 11.5336 117.999 11.5069 117.951 11.475C117.899 11.4352 117.867 11.4193 117.843 11.3954C117.827 11.3828 117.813 11.3681 117.802 11.3516V11.3516C117.802 11.3039 117.802 11.3516 117.754 11.3994C117.725 11.4335 117.691 11.4631 117.653 11.487L117.504 11.5825C117.451 11.615 117.396 11.643 117.338 11.6661V11.6661C117.341 11.6752 117.341 11.6848 117.338 11.6939C117.349 11.7239 117.359 11.7545 117.367 11.7855C117.39 11.8627 117.408 11.9411 117.423 12.0203L117.516 12.5139C117.583 12.8277 117.631 13.1454 117.657 13.4652C117.742 14.0701 117.738 14.6592 117.77 15.1528C117.802 15.6463 117.77 16.1279 117.77 16.5379C117.77 16.9479 117.726 17.3021 117.709 17.6046L117.637 18.3608C117.601 18.7589 117.576 18.9619 117.576 18.9619L117.508 19.4793C117.467 19.8256 117.391 20.3549 117.27 21.0714C117.149 21.7878 116.975 22.6635 116.729 23.774C116.436 25.0556 116.073 26.3206 115.64 27.5632L115.443 28.0965C115.366 28.2716 115.297 28.4388 115.213 28.6259L114.656 29.7762C114.273 30.5722 113.85 31.4041 113.394 32.2757C112.938 33.1474 112.43 34.0629 111.865 34.9982C111.287 35.9719 110.639 36.9031 109.925 37.7844C109.571 38.2343 109.165 38.6417 108.715 38.9984C108.517 39.1517 108.293 39.2689 108.054 39.3446C107.972 39.3723 107.885 39.3828 107.799 39.3752C107.713 39.3677 107.629 39.3423 107.553 39.3009C107.235 39.1337 106.912 38.5605 106.719 37.9635C106.512 37.3141 106.362 36.6482 106.271 35.9734C106.07 34.4918 105.97 32.9984 105.972 31.5036C105.972 29.938 106.025 28.3088 106.13 26.6159C106.19 25.7681 106.263 24.9083 106.364 24.0406C106.412 23.6068 106.468 23.169 106.537 22.7351C106.573 22.5202 106.61 22.3053 106.654 22.1062C106.674 22.0187 106.71 21.8993 106.714 21.8873L106.436 21.756C106.368 21.7182 106.302 21.677 106.239 21.6326C106.19 21.5809 106.214 21.5689 106.194 21.5928C106.15 21.6348 106.096 21.6661 106.037 21.6843C105.942 21.7206 105.845 21.7512 105.746 21.7759L105.65 21.8037V21.8475C105.67 22.0525 105.68 22.2585 105.678 22.4645C105.678 22.6874 105.678 22.9063 105.678 23.1331C105.678 23.5869 105.634 24.0446 105.589 24.5063C105.5 25.4297 105.363 26.377 105.186 27.3323C104.818 29.3133 104.347 31.2742 103.774 33.2071C103.177 35.27 102.455 37.2956 101.612 39.273C101.178 40.2929 100.671 41.2812 100.096 42.2303C99.8211 42.6868 99.4935 43.1103 99.1197 43.4921C98.9695 43.6465 98.7935 43.7744 98.5994 43.8702C98.4007 43.9208 98.1944 43.9356 97.9903 43.914C97.0344 43.8781 96.2197 43.1498 95.6591 42.1746C95.0714 41.1255 94.6407 39.9981 94.3805 38.8272C93.84 36.3396 93.5335 33.808 93.4649 31.2648C93.352 28.6259 93.3802 25.9034 93.5012 23.1132C93.6222 20.3231 93.84 17.4573 94.1627 14.5358C94.2434 13.8075 94.3321 13.0711 94.4329 12.3348C94.4854 11.9726 94.5378 11.6024 94.5943 11.2362L94.687 10.6909L94.7112 10.5596V10.4919C95.163 10.5596 94.1103 10.3208 94.1909 10.3446C94.1909 10.3208 94.1909 10.3685 94.1909 10.3446C94.1909 10.3208 94.1909 10.3446 94.1909 10.3446C94.2837 10.3446 93.1866 10.3446 93.6505 10.3765C93.6222 11.8651 93.5335 13.4054 93.4448 14.9498C93.0414 21.139 92.5211 27.6308 91.7185 34.4052C91.3151 37.7884 90.8392 41.2472 90.1818 44.7538C89.8622 46.5118 89.4502 48.2521 88.9476 49.9679C88.7054 50.8094 88.3798 51.6253 87.9755 52.4038C87.8172 52.7152 87.5897 52.9873 87.31 53.1999C87.2562 53.2339 87.1914 53.2467 87.1285 53.2357C87.0078 53.1824 86.9004 53.1036 86.8139 53.0048C86.5406 52.696 86.3113 52.3519 86.1323 51.9819C85.9226 51.5839 85.6846 51.1859 85.491 50.748C85.0876 49.9162 84.6843 49.0644 84.3697 48.1887C83.6937 46.4146 83.1741 44.5862 82.8169 42.7239C82.0828 38.9506 81.8771 34.9863 81.8045 30.9384C81.7601 28.4149 81.7722 25.7362 81.861 22.8943C81.9013 21.4774 81.9618 20.0166 82.0384 18.5161L82.0667 17.9549V17.8872C81.748 18.2534 81.744 17.8872 81.623 17.9071C81.5302 17.8394 81.5101 17.7877 81.5181 17.7956C81.4742 17.8517 81.4176 17.8967 81.3528 17.927C81.2419 17.9834 81.1273 18.0326 81.0099 18.0743V18.0981L81.0341 18.1937C81.0906 18.5002 81.1229 18.8862 81.1511 19.2564C81.2035 20.0087 81.2358 20.7808 81.26 21.561C81.3568 24.6974 81.3649 27.9851 81.4012 31.416C81.4375 34.847 81.506 38.3974 81.4576 42.0631C81.4294 43.8941 81.377 45.7568 81.2237 47.6355C81.139 48.5669 81.0462 49.5062 80.8688 50.4216C80.6803 51.3489 80.4283 52.2625 80.1145 53.1561C79.5035 55.0139 78.7539 56.8245 77.872 58.5732C77.4282 59.4485 76.9158 60.2883 76.3393 61.0847C75.8256 61.8551 75.1345 62.4947 74.3226 62.9514C73.9769 63.1215 73.5825 63.1693 73.2054 63.0868C72.8061 62.9647 72.4441 62.7457 72.1527 62.4499C71.4781 61.7302 70.9325 60.9024 70.5393 60.0021C70.1032 59.0608 69.7287 58.093 69.4181 57.1045C69.0954 56.1014 68.8131 55.0825 68.5791 54.0476C68.0851 51.9779 67.8748 49.852 67.954 47.727C67.999 46.6746 68.182 45.6324 68.4985 44.6264C68.6517 44.1423 68.8644 43.6785 69.1317 43.2453C69.3624 42.8486 69.6895 42.5148 70.0836 42.2741C70.2419 42.1752 70.4231 42.1179 70.6101 42.1074C70.7972 42.097 70.9838 42.1338 71.1524 42.2144C71.5536 42.4283 71.8892 42.7444 72.1244 43.1299C72.6688 44.0415 73.0393 45.0438 73.2175 46.0872C73.5919 48.303 73.6733 50.5574 73.4595 52.7939C73.0844 57.3353 72.0841 61.9484 69.7569 66.0162C69.6197 66.2709 69.4665 66.5177 69.3051 66.7605C69.1438 67.0033 68.9986 67.2541 68.8332 67.4969C68.4904 67.9665 68.1597 68.4481 67.7765 68.8899C67.3933 69.3317 67.0102 69.7696 66.6149 70.2034C66.2196 70.6373 65.78 71.0273 65.3282 71.3975C63.5273 72.9272 61.4886 74.1609 59.2903 75.0513C57.0349 75.9546 54.6874 76.6151 52.2884 77.0216C51.6874 77.129 51.0784 77.2285 50.4653 77.3241L49.5457 77.4554L49.0859 77.5231L48.5939 77.6067C47.2492 77.8369 45.9861 78.4013 44.9235 79.2465C43.7928 80.1319 43.0551 81.4165 42.8665 82.8287C42.7951 83.565 42.9232 84.3067 43.2376 84.9781C43.5671 85.6303 44.0531 86.1933 44.6533 86.6179C45.2278 87.0185 45.8657 87.3225 46.5409 87.5175C46.8676 87.6176 47.2003 87.6974 47.5371 87.7563C47.8889 87.8145 48.2453 87.8412 48.6019 87.8359C49.9932 87.7687 51.338 87.3208 52.486 86.5423C53.5927 85.8189 54.5977 84.9543 55.4748 83.9711C56.3465 83.0103 57.1434 81.9857 57.8585 80.9063C59.2744 78.742 60.4585 76.4383 61.3917 74.0324C62.3609 71.6377 63.0511 69.142 63.4487 66.5933C63.6468 65.2989 63.7117 63.9881 63.6423 62.6808C63.5981 61.3132 63.238 59.9736 62.5896 58.7642C62.409 58.452 62.1969 58.1586 61.9564 57.8886C61.8313 57.7572 61.6982 57.6219 61.553 57.4905L61.1739 57.1602C60.6521 56.7286 60.0934 56.3424 59.5041 56.0059C58.9077 55.6741 58.2812 55.3983 57.6326 55.182C56.9764 54.9718 56.301 54.8251 55.6159 54.7442C54.2688 54.5923 52.9053 54.665 51.5826 54.9591C50.2792 55.2496 49.0158 55.6932 47.8195 56.2806C45.4644 57.4588 43.3396 59.0395 41.5436 60.9494C40.6152 61.9057 39.8154 62.9758 39.1639 64.1336C38.8165 64.7422 38.5662 65.4 38.4217 66.0839C38.34 66.4778 38.34 66.884 38.4217 67.2779C38.5213 67.717 38.7687 68.1099 39.1235 68.3924C39.4661 68.6368 39.8631 68.7965 40.2811 68.8581C40.6539 68.9224 41.0337 68.9371 41.4105 68.9019C42.127 68.8138 42.8199 68.5908 43.4513 68.2451C44.6201 67.5863 45.6707 66.7417 46.561 65.7456C48.2895 63.8259 49.7059 61.6534 50.7598 59.3055C51.8401 56.9829 52.5646 54.5147 52.9095 51.9819C53.2954 49.423 53.0321 46.8095 52.1432 44.3757C51.9049 43.7687 51.6148 43.1828 51.276 42.6244C50.9324 42.0692 50.5425 41.5434 50.1104 41.0522C49.2375 40.0788 48.2088 39.2532 47.0652 38.6083C44.808 37.4189 42.3274 36.6995 39.7769 36.4948C37.2716 36.2636 34.7446 36.4765 32.3152 37.1237C29.9301 37.7641 27.6498 38.7371 25.5432 40.0133C23.4746 41.2679 21.5466 42.7356 19.7917 44.3916C18.0628 46.0037 16.4723 47.7543 15.0364 49.6256C13.6187 51.4619 12.3445 53.4019 11.2248 55.4288C10.1094 57.4272 9.1871 59.5247 8.47005 61.6937C8.29258 62.235 8.13931 62.7843 8.00218 63.3335L7.86908 63.9226V63.9943L7.84085 64.1375C7.7211 64.7184 7.63759 65.3059 7.59078 65.8968C7.50216 66.7591 7.60681 67.6302 7.89731 68.4481C8.03335 68.8066 8.22671 69.1412 8.47005 69.4392C8.7302 69.7501 9.06028 69.9968 9.43402 70.1596V70.1596Z"/>
</mask>
<path d="M9.43402 70.1596C9.01911 69.5971 8.79213 68.921 8.78465 68.2252C8.7466 67.4768 8.76278 66.7266 8.83305 65.9804C8.88218 65.4365 8.96163 64.8957 9.07102 64.3604L9.09925 64.2291V64.1614L9.22832 63.6122C9.35739 63.0907 9.50259 62.5733 9.66796 62.0559C10.3599 59.9653 11.2498 57.9437 12.3259 56.0179C13.4163 54.0475 14.6554 52.1608 16.0326 50.3739C17.4313 48.5577 18.98 46.859 20.6629 45.2951C22.3569 43.7037 24.2188 42.2959 26.2168 41.096C28.224 39.8801 30.3971 38.9539 32.6702 38.3456C34.956 37.7343 37.3345 37.5335 39.6922 37.7526C42.0637 37.9407 44.3711 38.6058 46.4723 39.7069C47.4919 40.2777 48.4102 41.009 49.1908 41.8721C49.9662 42.7405 50.5769 43.7396 50.9937 44.8215C51.8052 47.062 52.0422 49.4659 51.6834 51.8187C51.3531 54.2272 50.664 56.5744 49.6385 58.7841C48.6395 61.0176 47.2967 63.0852 45.6576 64.9137C44.864 65.8059 43.928 66.5641 42.8867 67.1585C42.4006 67.4245 41.8685 67.5986 41.3177 67.672C40.8436 67.7407 40.36 67.648 39.9463 67.4093C39.8081 67.3006 39.7137 67.1467 39.6801 66.9755C39.6358 66.7453 39.6358 66.509 39.6801 66.2789C39.8016 65.7212 40.0069 65.1846 40.2892 64.6868C40.8914 63.633 41.6274 62.6592 42.4793 61.7892C44.1866 59.9931 46.2037 58.5106 48.4366 57.4109C50.6509 56.3403 53.1233 55.6994 55.5232 55.994C56.7186 56.1356 57.8733 56.5118 58.9192 57.1005C59.4419 57.3997 59.9372 57.7433 60.3995 58.1274L60.7423 58.4219C60.8512 58.5214 60.94 58.613 61.0368 58.7125C61.2197 58.9194 61.3817 59.1433 61.5208 59.3812C62.0676 60.4255 62.3708 61.5774 62.4081 62.7524C62.4707 63.9748 62.4086 65.2002 62.2226 66.4103C61.837 68.8646 61.1713 71.268 60.2382 73.5747C59.3311 75.8866 58.1835 78.0995 56.8138 80.1779C56.1366 81.205 55.3802 82.1791 54.5511 83.0914C53.7488 83.9936 52.8294 84.7872 51.8165 85.4517C50.8642 86.104 49.7473 86.4829 48.5898 86.5463C48.3195 86.5497 48.0495 86.5284 47.7832 86.4826C47.498 86.4328 47.2165 86.365 46.9402 86.2796C46.3993 86.127 45.888 85.8862 45.4277 85.5671C44.9969 85.2651 44.6479 84.8633 44.4113 84.3969C44.196 83.9341 44.1084 83.4233 44.1572 82.9163C44.3171 81.8357 44.8954 80.8583 45.7705 80.1898C46.6684 79.4797 47.7342 79.0059 48.8681 78.8127L49.2997 78.741L49.7635 78.6734L50.6952 78.538C51.3164 78.4465 51.9375 78.343 52.5546 78.2316C55.0425 77.8089 57.4767 77.1216 59.8146 76.1817C62.1539 75.2399 64.3225 73.9293 66.2357 72.301C66.7157 71.903 67.1554 71.4572 67.6031 71.0273C68.0508 70.5975 68.4581 70.1198 68.8413 69.6303C69.2245 69.1407 69.5955 68.6511 69.9585 68.1536C70.132 67.8989 70.2933 67.6362 70.4587 67.3775C70.624 67.1187 70.7894 66.86 70.9346 66.5814C72.1319 64.4647 73.0418 62.2018 73.641 59.8508C74.2304 57.5503 74.6177 55.2039 74.7986 52.8376C75.0198 50.4893 74.9317 48.1226 74.5364 45.7966C74.3289 44.5923 73.8952 43.4368 73.2578 42.3895C72.8951 41.8059 72.3739 41.3343 71.7534 41.0283C71.4028 40.8635 71.0158 40.7882 70.6281 40.8094C70.2464 40.8319 69.8752 40.9408 69.5431 41.1278C68.9634 41.4724 68.4797 41.9539 68.1355 42.5288C67.8136 43.0479 67.5576 43.604 67.3732 44.1846C67.0206 45.2946 66.8172 46.4454 66.7681 47.6076C66.6572 49.8539 66.8553 52.1046 67.357 54.2984C67.599 55.3598 67.8881 56.4132 68.2242 57.4587C68.5523 58.4987 68.947 59.517 69.406 60.5076C69.8583 61.5432 70.4888 62.4939 71.2694 63.3176C71.7147 63.7679 72.2705 64.097 72.8827 64.2729C73.5373 64.4264 74.2256 64.3519 74.8308 64.0619C75.3674 63.8079 75.8548 63.463 76.2707 63.043C76.6635 62.6588 77.0237 62.2435 77.3476 61.8011C77.9635 60.949 78.511 60.0507 78.9852 59.1145C79.8994 57.3091 80.6746 55.4384 81.3044 53.5183C81.6389 52.5741 81.9084 51.6087 82.111 50.6286C82.2861 49.6657 82.4113 48.6946 82.4861 47.7191C82.6394 45.7966 82.6959 43.9179 82.7201 42.0671C82.7725 38.3735 82.7201 34.8112 82.6676 31.3882C82.6152 27.9652 82.6233 24.6695 82.5224 21.5132C82.4982 20.7171 82.466 19.9211 82.4135 19.1569C82.3881 18.7501 82.341 18.3448 82.2724 17.9429C82.2609 17.8811 82.2461 17.82 82.228 17.7598C82.2037 17.6628 82.1671 17.5692 82.1191 17.4812C82.0586 17.4215 82.0667 17.2703 81.6432 17.131C81.5166 17.1056 81.3852 17.1169 81.265 17.1635C81.1448 17.2101 81.0408 17.29 80.9656 17.3936C80.8728 17.5807 80.9293 17.2941 80.8002 17.7917V17.8633L80.772 18.4285C80.6953 19.933 80.6389 21.3978 80.5945 22.8267C80.5058 25.6805 80.4937 28.399 80.538 30.9264C80.6106 35.0062 80.8163 39.0302 81.5746 42.9269C81.9455 44.8599 82.4853 46.7576 83.1879 48.5987C83.5348 49.5102 83.9301 50.3978 84.3576 51.2655C84.5593 51.7033 84.8013 52.1172 85.0231 52.5431C85.2567 53.0174 85.5567 53.4569 85.9145 53.8486C86.1478 54.0964 86.4384 54.2849 86.7615 54.3979C87.1585 54.5029 87.5813 54.4501 87.9392 54.2506C88.207 54.0856 88.4421 53.8738 88.633 53.6257C88.7975 53.4168 88.9458 53.1959 89.0766 52.965C89.5243 52.108 89.8851 51.2094 90.1535 50.2823C90.6703 48.5236 91.093 46.7394 91.42 44.9369C92.0895 41.3985 92.5614 37.9197 92.9729 34.5166C93.7795 27.7144 94.32 21.2067 94.7032 14.9896C94.7919 13.4333 94.8847 11.9049 94.9129 10.3606C94.9182 10.2647 94.9045 10.1687 94.8726 10.078C94.8086 9.90586 94.6798 9.76472 94.513 9.68391C94.3462 9.60311 94.1543 9.58886 93.9772 9.64413C93.8823 9.67195 93.7942 9.71884 93.7185 9.78186C93.6429 9.84488 93.5813 9.92266 93.5375 10.0103C93.5 10.0794 93.4767 10.1552 93.469 10.2332V10.3048L93.4407 10.4481L93.3439 11.0213C93.2875 11.3994 93.231 11.7736 93.1786 12.1517C93.0737 12.9 92.985 13.6403 92.9043 14.3806C92.5776 17.3339 92.3638 20.2236 92.2388 23.0416C92.1137 25.8596 92.0855 28.6139 92.1984 31.2966C92.2798 33.9275 92.6052 36.5455 93.1705 39.1178C93.4493 40.3926 93.911 41.6216 94.5418 42.7677C94.8769 43.3692 95.326 43.9016 95.8648 44.3359C96.4349 44.8048 97.1409 45.0834 97.8814 45.1319H98.1517H98.4179C98.633 45.1219 98.8453 45.0789 99.0471 45.0045C99.3943 44.8503 99.709 44.6329 99.9748 44.3637C100.422 43.9125 100.814 43.4101 101.14 42.8672C101.755 41.8672 102.294 40.8243 102.754 39.7467C103.617 37.7211 104.356 35.6464 104.968 33.5335C105.554 31.5589 106.034 29.5554 106.408 27.5313C106.589 26.5482 106.731 25.573 106.811 24.6019C106.86 24.1202 106.896 23.6347 106.908 23.153C106.908 22.9103 106.908 22.6675 106.908 22.4247C106.912 22.1693 106.898 21.914 106.868 21.6605C106.854 21.5458 106.826 21.4335 106.783 21.3261C106.732 21.205 106.647 21.1012 106.537 21.0276C106.263 20.7609 105.73 21.0276 105.73 21.0953C105.672 21.1483 105.623 21.2101 105.585 21.2784C105.567 21.3106 105.551 21.3438 105.537 21.3779C105.481 21.5185 105.438 21.6637 105.408 21.8117C105.351 22.0585 105.311 22.2893 105.275 22.5202C105.198 22.9819 105.141 23.4317 105.089 23.8814C104.99 24.773 104.912 25.6487 104.855 26.5084C104.734 28.2332 104.68 29.8956 104.694 31.4956C104.691 33.0478 104.795 34.5983 105.004 36.1366C105.107 36.8818 105.274 37.6169 105.504 38.3337C105.616 38.7053 105.768 39.0642 105.956 39.4044C106.176 39.7971 106.496 40.1264 106.884 40.3596C107.102 40.4799 107.343 40.556 107.592 40.5833C107.84 40.6106 108.092 40.5887 108.332 40.5188C108.722 40.4041 109.087 40.2192 109.409 39.9735C109.952 39.5582 110.442 39.0798 110.869 38.5486C111.629 37.6068 112.319 36.6118 112.934 35.5714C113.515 34.6042 114.031 33.6768 114.499 32.7852C114.967 31.8936 115.354 31.0459 115.757 30.2498L116.318 29.0836C116.407 28.8925 116.491 28.6856 116.576 28.4866L116.79 27.9134C117.238 26.625 117.615 25.3136 117.919 23.9849C118.173 22.8665 118.351 21.9431 118.476 21.1988C118.601 20.4544 118.677 19.9211 118.722 19.5589L118.79 19.0255C118.79 19.0255 118.815 18.8226 118.851 18.4086L118.927 17.6126C118.927 17.2941 118.964 16.924 118.988 16.4981C119.012 16.0722 118.988 15.5866 119.012 15.0453C119.036 14.504 118.984 13.899 118.891 13.2383C118.862 12.8905 118.811 12.5449 118.738 12.2034L118.633 11.6541C118.614 11.5521 118.59 11.4511 118.56 11.3516C118.523 11.2126 118.467 11.0788 118.395 10.9536C118.379 10.922 118.358 10.8926 118.335 10.8661C118.305 10.8235 118.269 10.7847 118.23 10.7506C118.193 10.7193 118.154 10.6913 118.113 10.667C118.063 10.6388 118.01 10.6161 117.955 10.5994C117.809 10.56 117.653 10.5684 117.512 10.6233C117.459 10.6581 117.412 10.6995 117.371 10.7467C117.343 10.7671 117.318 10.7897 117.294 10.8143L117.225 10.8899L117.193 10.9377L117.137 11.0332L117.108 11.0969C117.058 11.2259 117.019 11.3591 116.991 11.4949C116.943 11.7218 116.915 11.9288 116.891 12.1437C116.842 12.5656 116.81 12.9955 116.782 13.4373C116.608 16.9598 116.697 21.3978 117 26.8069C117.302 32.216 117.871 38.6441 118.944 46.0712C119.484 49.7848 120.154 53.7531 121.037 57.9642C121.92 62.1753 123.017 66.6093 124.481 71.2462C124.85 72.4085 125.245 73.58 125.667 74.7608L126.252 76.3529L125.974 76.2494C124.832 75.7877 123.63 75.1827 122.404 74.6573C121.178 74.1319 119.908 73.5986 118.601 73.1329C115.908 72.1648 113.117 71.4882 110.276 71.1149C107.276 70.723 104.237 70.723 101.237 71.1149C98.0881 71.5559 95.0112 72.4029 92.0855 73.6344C89.0287 74.9103 86.1222 76.5119 83.4178 78.4107C77.88 82.2874 72.8948 87.3383 68.3613 93.0699C66.0946 95.9436 63.9314 98.9845 61.8717 102.193C60.8391 103.785 59.8281 105.421 58.8386 107.1L58.4715 107.729L57.7536 108.967L57.3906 109.6L57.3019 109.755C57.3019 109.791 57.3019 109.807 57.3019 109.831V109.97V110.523C57.3019 110.563 57.3019 110.627 57.3019 110.651C57.3019 110.674 57.3422 110.718 57.3825 110.77C57.4727 110.885 57.5887 110.978 57.7213 111.041C57.7956 111.08 57.876 111.107 57.9593 111.12H58.1368C58.2287 111.117 58.3196 111.101 58.407 111.072C58.575 111.018 58.7253 110.92 58.8426 110.79L59.9114 109.759L78.0131 92.3415C90.7827 80.0664 108.36 63.1624 128.587 43.8503C133.653 39.0262 138.872 34.043 144.269 29C149.666 23.9571 155.365 18.9937 161.274 14.0662L165.71 10.3486C166.457 9.72373 167.203 9.09485 167.941 8.45005C168.312 8.12766 168.679 7.7973 169.042 7.455L169.316 7.19628L169.385 7.12862C169.417 7.10094 169.447 7.07029 169.473 7.03707L169.711 6.78632L169.949 6.53158L170.143 6.26491C170.208 6.18372 170.266 6.09716 170.316 6.00619L170.405 5.76738C170.437 5.70046 170.45 5.62602 170.441 5.55244V5.45294L170.413 5.35741C170.392 5.28689 170.358 5.2208 170.312 5.16238C170.275 5.11193 170.23 5.06759 170.179 5.03103C169.838 4.85355 169.444 4.79868 169.066 4.8758C168.836 4.8957 168.562 4.93153 168.356 4.95939L167.981 5.01511L167.239 5.14248C166.255 5.31761 165.283 5.5405 164.315 5.73951C162.375 6.17336 160.447 6.64701 158.515 7.14454C150.803 9.13466 143.107 11.4392 135.42 13.8711C113.495 20.8565 91.658 29.0279 70.7531 37.5734C65.5313 39.7148 60.3659 41.8761 55.257 44.0572L47.2548 47.5161L46.6336 47.7907L44.7904 48.5868C43.3527 49.2116 42.0113 50.033 40.8054 51.0266C42.3576 50.8064 43.8721 50.3779 45.3067 49.753L47.1499 48.9569L47.7751 48.6823L55.7652 45.2274C60.8553 43.0542 66.0126 40.8969 71.2371 38.7556C92.1178 30.218 113.93 22.0585 135.823 15.0891C143.487 12.6611 151.174 10.3645 158.85 8.38239C160.765 7.88884 162.685 7.41519 164.605 6.98931C165.565 6.77438 166.525 6.57138 167.481 6.40023L168.195 6.27685L168.55 6.2251L168.183 6.57934C167.832 6.90174 167.477 7.22414 167.114 7.54256C166.384 8.17542 165.646 8.80032 164.904 9.42521L160.467 13.1388C154.546 18.0782 148.819 23.0575 143.41 28.1164C138.001 33.1753 132.786 38.1546 127.72 42.9786C107.489 62.2947 89.9156 79.1988 77.146 91.4738L59.5646 108.394L59.9316 107.769C60.9131 106.108 61.9147 104.485 62.9365 102.901C64.9814 99.7169 67.115 96.7118 69.3576 93.8779C73.8346 88.214 78.7432 83.2506 84.1479 79.4694C86.774 77.6144 89.598 76.0488 92.5695 74.8006C95.3974 73.6286 98.3682 72.8258 101.407 72.4124C104.296 72.0298 107.224 72.0231 110.115 72.3926C112.867 72.753 115.572 73.4082 118.181 74.3468C119.456 74.8006 120.69 75.3061 121.896 75.8394C123.102 76.3728 124.26 76.9459 125.526 77.4594L125.772 77.5509L125.95 77.6106L126.163 77.6703C126.442 77.759 126.74 77.7673 127.022 77.6942C127.148 77.6551 127.262 77.5886 127.358 77.4997C127.454 77.4108 127.528 77.3018 127.575 77.1808C127.658 76.9136 127.658 76.628 127.575 76.3608C127.462 76.0026 127.426 75.919 127.361 75.7479L127.188 75.2822L126.869 74.4066C126.466 73.2403 126.063 72.0821 125.695 70.9318C124.235 66.3386 123.146 61.9245 122.263 57.7493C121.38 53.574 120.718 49.6296 120.182 45.9359C119.117 38.5486 118.569 32.1683 118.25 26.779C117.953 22.3753 117.88 17.9597 118.032 13.5487C118.056 13.1189 118.089 12.7089 118.133 12.3268C118.153 12.1358 118.181 11.9487 118.214 11.7935C118.225 11.7382 118.24 11.6838 118.258 11.6303L118.21 11.6064L118.105 11.5546C118.051 11.5336 117.999 11.5069 117.951 11.475C117.899 11.4352 117.867 11.4193 117.843 11.3954C117.827 11.3828 117.813 11.3681 117.802 11.3516V11.3516C117.802 11.3039 117.802 11.3516 117.754 11.3994C117.725 11.4335 117.691 11.4631 117.653 11.487L117.504 11.5825C117.451 11.615 117.396 11.643 117.338 11.6661V11.6661C117.341 11.6752 117.341 11.6848 117.338 11.6939C117.349 11.7239 117.359 11.7545 117.367 11.7855C117.39 11.8627 117.408 11.9411 117.423 12.0203L117.516 12.5139C117.583 12.8277 117.631 13.1454 117.657 13.4652C117.742 14.0701 117.738 14.6592 117.77 15.1528C117.802 15.6463 117.77 16.1279 117.77 16.5379C117.77 16.9479 117.726 17.3021 117.709 17.6046L117.637 18.3608C117.601 18.7589 117.576 18.9619 117.576 18.9619L117.508 19.4793C117.467 19.8256 117.391 20.3549 117.27 21.0714C117.149 21.7878 116.975 22.6635 116.729 23.774C116.436 25.0556 116.073 26.3206 115.64 27.5632L115.443 28.0965C115.366 28.2716 115.297 28.4388 115.213 28.6259L114.656 29.7762C114.273 30.5722 113.85 31.4041 113.394 32.2757C112.938 33.1474 112.43 34.0629 111.865 34.9982C111.287 35.9719 110.639 36.9031 109.925 37.7844C109.571 38.2343 109.165 38.6417 108.715 38.9984C108.517 39.1517 108.293 39.2689 108.054 39.3446C107.972 39.3723 107.885 39.3828 107.799 39.3752C107.713 39.3677 107.629 39.3423 107.553 39.3009C107.235 39.1337 106.912 38.5605 106.719 37.9635C106.512 37.3141 106.362 36.6482 106.271 35.9734C106.07 34.4918 105.97 32.9984 105.972 31.5036C105.972 29.938 106.025 28.3088 106.13 26.6159C106.19 25.7681 106.263 24.9083 106.364 24.0406C106.412 23.6068 106.468 23.169 106.537 22.7351C106.573 22.5202 106.61 22.3053 106.654 22.1062C106.674 22.0187 106.71 21.8993 106.714 21.8873L106.436 21.756C106.368 21.7182 106.302 21.677 106.239 21.6326C106.19 21.5809 106.214 21.5689 106.194 21.5928C106.15 21.6348 106.096 21.6661 106.037 21.6843C105.942 21.7206 105.845 21.7512 105.746 21.7759L105.65 21.8037V21.8475C105.67 22.0525 105.68 22.2585 105.678 22.4645C105.678 22.6874 105.678 22.9063 105.678 23.1331C105.678 23.5869 105.634 24.0446 105.589 24.5063C105.5 25.4297 105.363 26.377 105.186 27.3323C104.818 29.3133 104.347 31.2742 103.774 33.2071C103.177 35.27 102.455 37.2956 101.612 39.273C101.178 40.2929 100.671 41.2812 100.096 42.2303C99.8211 42.6868 99.4935 43.1103 99.1197 43.4921C98.9695 43.6465 98.7935 43.7744 98.5994 43.8702C98.4007 43.9208 98.1944 43.9356 97.9903 43.914C97.0344 43.8781 96.2197 43.1498 95.6591 42.1746C95.0714 41.1255 94.6407 39.9981 94.3805 38.8272C93.84 36.3396 93.5335 33.808 93.4649 31.2648C93.352 28.6259 93.3802 25.9034 93.5012 23.1132C93.6222 20.3231 93.84 17.4573 94.1627 14.5358C94.2434 13.8075 94.3321 13.0711 94.4329 12.3348C94.4854 11.9726 94.5378 11.6024 94.5943 11.2362L94.687 10.6909L94.7112 10.5596V10.4919C95.163 10.5596 94.1103 10.3208 94.1909 10.3446C94.1909 10.3208 94.1909 10.3685 94.1909 10.3446C94.1909 10.3208 94.1909 10.3446 94.1909 10.3446C94.2837 10.3446 93.1866 10.3446 93.6505 10.3765C93.6222 11.8651 93.5335 13.4054 93.4448 14.9498C93.0414 21.139 92.5211 27.6308 91.7185 34.4052C91.3151 37.7884 90.8392 41.2472 90.1818 44.7538C89.8622 46.5118 89.4502 48.2521 88.9476 49.9679C88.7054 50.8094 88.3798 51.6253 87.9755 52.4038C87.8172 52.7152 87.5897 52.9873 87.31 53.1999C87.2562 53.2339 87.1914 53.2467 87.1285 53.2357C87.0078 53.1824 86.9004 53.1036 86.8139 53.0048C86.5406 52.696 86.3113 52.3519 86.1323 51.9819C85.9226 51.5839 85.6846 51.1859 85.491 50.748C85.0876 49.9162 84.6843 49.0644 84.3697 48.1887C83.6937 46.4146 83.1741 44.5862 82.8169 42.7239C82.0828 38.9506 81.8771 34.9863 81.8045 30.9384C81.7601 28.4149 81.7722 25.7362 81.861 22.8943C81.9013 21.4774 81.9618 20.0166 82.0384 18.5161L82.0667 17.9549V17.8872C81.748 18.2534 81.744 17.8872 81.623 17.9071C81.5302 17.8394 81.5101 17.7877 81.5181 17.7956C81.4742 17.8517 81.4176 17.8967 81.3528 17.927C81.2419 17.9834 81.1273 18.0326 81.0099 18.0743V18.0981L81.0341 18.1937C81.0906 18.5002 81.1229 18.8862 81.1511 19.2564C81.2035 20.0087 81.2358 20.7808 81.26 21.561C81.3568 24.6974 81.3649 27.9851 81.4012 31.416C81.4375 34.847 81.506 38.3974 81.4576 42.0631C81.4294 43.8941 81.377 45.7568 81.2237 47.6355C81.139 48.5669 81.0462 49.5062 80.8688 50.4216C80.6803 51.3489 80.4283 52.2625 80.1145 53.1561C79.5035 55.0139 78.7539 56.8245 77.872 58.5732C77.4282 59.4485 76.9158 60.2883 76.3393 61.0847C75.8256 61.8551 75.1345 62.4947 74.3226 62.9514C73.9769 63.1215 73.5825 63.1693 73.2054 63.0868C72.8061 62.9647 72.4441 62.7457 72.1527 62.4499C71.4781 61.7302 70.9325 60.9024 70.5393 60.0021C70.1032 59.0608 69.7287 58.093 69.4181 57.1045C69.0954 56.1014 68.8131 55.0825 68.5791 54.0476C68.0851 51.9779 67.8748 49.852 67.954 47.727C67.999 46.6746 68.182 45.6324 68.4985 44.6264C68.6517 44.1423 68.8644 43.6785 69.1317 43.2453C69.3624 42.8486 69.6895 42.5148 70.0836 42.2741C70.2419 42.1752 70.4231 42.1179 70.6101 42.1074C70.7972 42.097 70.9838 42.1338 71.1524 42.2144C71.5536 42.4283 71.8892 42.7444 72.1244 43.1299C72.6688 44.0415 73.0393 45.0438 73.2175 46.0872C73.5919 48.303 73.6733 50.5574 73.4595 52.7939C73.0844 57.3353 72.0841 61.9484 69.7569 66.0162C69.6197 66.2709 69.4665 66.5177 69.3051 66.7605C69.1438 67.0033 68.9986 67.2541 68.8332 67.4969C68.4904 67.9665 68.1597 68.4481 67.7765 68.8899C67.3933 69.3317 67.0102 69.7696 66.6149 70.2034C66.2196 70.6373 65.78 71.0273 65.3282 71.3975C63.5273 72.9272 61.4886 74.1609 59.2903 75.0513C57.0349 75.9546 54.6874 76.6151 52.2884 77.0216C51.6874 77.129 51.0784 77.2285 50.4653 77.3241L49.5457 77.4554L49.0859 77.5231L48.5939 77.6067C47.2492 77.8369 45.9861 78.4013 44.9235 79.2465C43.7928 80.1319 43.0551 81.4165 42.8665 82.8287C42.7951 83.565 42.9232 84.3067 43.2376 84.9781C43.5671 85.6303 44.0531 86.1933 44.6533 86.6179C45.2278 87.0185 45.8657 87.3225 46.5409 87.5175C46.8676 87.6176 47.2003 87.6974 47.5371 87.7563C47.8889 87.8145 48.2453 87.8412 48.6019 87.8359C49.9932 87.7687 51.338 87.3208 52.486 86.5423C53.5927 85.8189 54.5977 84.9543 55.4748 83.9711C56.3465 83.0103 57.1434 81.9857 57.8585 80.9063C59.2744 78.742 60.4585 76.4383 61.3917 74.0324C62.3609 71.6377 63.0511 69.142 63.4487 66.5933C63.6468 65.2989 63.7117 63.9881 63.6423 62.6808C63.5981 61.3132 63.238 59.9736 62.5896 58.7642C62.409 58.452 62.1969 58.1586 61.9564 57.8886C61.8313 57.7572 61.6982 57.6219 61.553 57.4905L61.1739 57.1602C60.6521 56.7286 60.0934 56.3424 59.5041 56.0059C58.9077 55.6741 58.2812 55.3983 57.6326 55.182C56.9764 54.9718 56.301 54.8251 55.6159 54.7442C54.2688 54.5923 52.9053 54.665 51.5826 54.9591C50.2792 55.2496 49.0158 55.6932 47.8195 56.2806C45.4644 57.4588 43.3396 59.0395 41.5436 60.9494C40.6152 61.9057 39.8154 62.9758 39.1639 64.1336C38.8165 64.7422 38.5662 65.4 38.4217 66.0839C38.34 66.4778 38.34 66.884 38.4217 67.2779C38.5213 67.717 38.7687 68.1099 39.1235 68.3924C39.4661 68.6368 39.8631 68.7965 40.2811 68.8581C40.6539 68.9224 41.0337 68.9371 41.4105 68.9019C42.127 68.8138 42.8199 68.5908 43.4513 68.2451C44.6201 67.5863 45.6707 66.7417 46.561 65.7456C48.2895 63.8259 49.7059 61.6534 50.7598 59.3055C51.8401 56.9829 52.5646 54.5147 52.9095 51.9819C53.2954 49.423 53.0321 46.8095 52.1432 44.3757C51.9049 43.7687 51.6148 43.1828 51.276 42.6244C50.9324 42.0692 50.5425 41.5434 50.1104 41.0522C49.2375 40.0788 48.2088 39.2532 47.0652 38.6083C44.808 37.4189 42.3274 36.6995 39.7769 36.4948C37.2716 36.2636 34.7446 36.4765 32.3152 37.1237C29.9301 37.7641 27.6498 38.7371 25.5432 40.0133C23.4746 41.2679 21.5466 42.7356 19.7917 44.3916C18.0628 46.0037 16.4723 47.7543 15.0364 49.6256C13.6187 51.4619 12.3445 53.4019 11.2248 55.4288C10.1094 57.4272 9.1871 59.5247 8.47005 61.6937C8.29258 62.235 8.13931 62.7843 8.00218 63.3335L7.86908 63.9226V63.9943L7.84085 64.1375C7.7211 64.7184 7.63759 65.3059 7.59078 65.8968C7.50216 66.7591 7.60681 67.6302 7.89731 68.4481C8.03335 68.8066 8.22671 69.1412 8.47005 69.4392C8.7302 69.7501 9.06028 69.9968 9.43402 70.1596V70.1596Z" fill="#1D1D1B"/>
<path d="M9.43402 70.1596C9.01911 69.5971 8.79213 68.921 8.78465 68.2252C8.7466 67.4768 8.76278 66.7266 8.83305 65.9804C8.88218 65.4365 8.96163 64.8957 9.07102 64.3604L9.09925 64.2291V64.1614L9.22832 63.6122C9.35739 63.0907 9.50259 62.5733 9.66796 62.0559C10.3599 59.9653 11.2498 57.9437 12.3259 56.0179C13.4163 54.0475 14.6554 52.1608 16.0326 50.3739C17.4313 48.5577 18.98 46.859 20.6629 45.2951C22.3569 43.7037 24.2188 42.2959 26.2168 41.096C28.224 39.8801 30.3971 38.9539 32.6702 38.3456C34.956 37.7343 37.3345 37.5335 39.6922 37.7526C42.0637 37.9407 44.3711 38.6058 46.4723 39.7069C47.4919 40.2777 48.4102 41.009 49.1908 41.8721C49.9662 42.7405 50.5769 43.7396 50.9937 44.8215C51.8052 47.062 52.0422 49.4659 51.6834 51.8187C51.3531 54.2272 50.664 56.5744 49.6385 58.7841C48.6395 61.0176 47.2967 63.0852 45.6576 64.9137C44.864 65.8059 43.928 66.5641 42.8867 67.1585C42.4006 67.4245 41.8685 67.5986 41.3177 67.672C40.8436 67.7407 40.36 67.648 39.9463 67.4093C39.8081 67.3006 39.7137 67.1467 39.6801 66.9755C39.6358 66.7453 39.6358 66.509 39.6801 66.2789C39.8016 65.7212 40.0069 65.1846 40.2892 64.6868C40.8914 63.633 41.6274 62.6592 42.4793 61.7892C44.1866 59.9931 46.2037 58.5106 48.4366 57.4109C50.6509 56.3403 53.1233 55.6994 55.5232 55.994C56.7186 56.1356 57.8733 56.5118 58.9192 57.1005C59.4419 57.3997 59.9372 57.7433 60.3995 58.1274L60.7423 58.4219C60.8512 58.5214 60.94 58.613 61.0368 58.7125C61.2197 58.9194 61.3817 59.1433 61.5208 59.3812C62.0676 60.4255 62.3708 61.5774 62.4081 62.7524C62.4707 63.9748 62.4086 65.2002 62.2226 66.4103C61.837 68.8646 61.1713 71.268 60.2382 73.5747C59.3311 75.8866 58.1835 78.0995 56.8138 80.1779C56.1366 81.205 55.3802 82.1791 54.5511 83.0914C53.7488 83.9936 52.8294 84.7872 51.8165 85.4517C50.8642 86.104 49.7473 86.4829 48.5898 86.5463C48.3195 86.5497 48.0495 86.5284 47.7832 86.4826C47.498 86.4328 47.2165 86.365 46.9402 86.2796C46.3993 86.127 45.888 85.8862 45.4277 85.5671C44.9969 85.2651 44.6479 84.8633 44.4113 84.3969C44.196 83.9341 44.1084 83.4233 44.1572 82.9163C44.3171 81.8357 44.8954 80.8583 45.7705 80.1898C46.6684 79.4797 47.7342 79.0059 48.8681 78.8127L49.2997 78.741L49.7635 78.6734L50.6952 78.538C51.3164 78.4465 51.9375 78.343 52.5546 78.2316C55.0425 77.8089 57.4767 77.1216 59.8146 76.1817C62.1539 75.2399 64.3225 73.9293 66.2357 72.301C66.7157 71.903 67.1554 71.4572 67.6031 71.0273C68.0508 70.5975 68.4581 70.1198 68.8413 69.6303C69.2245 69.1407 69.5955 68.6511 69.9585 68.1536C70.132 67.8989 70.2933 67.6362 70.4587 67.3775C70.624 67.1187 70.7894 66.86 70.9346 66.5814C72.1319 64.4647 73.0418 62.2018 73.641 59.8508C74.2304 57.5503 74.6177 55.2039 74.7986 52.8376C75.0198 50.4893 74.9317 48.1226 74.5364 45.7966C74.3289 44.5923 73.8952 43.4368 73.2578 42.3895C72.8951 41.8059 72.3739 41.3343 71.7534 41.0283C71.4028 40.8635 71.0158 40.7882 70.6281 40.8094C70.2464 40.8319 69.8752 40.9408 69.5431 41.1278C68.9634 41.4724 68.4797 41.9539 68.1355 42.5288C67.8136 43.0479 67.5576 43.604 67.3732 44.1846C67.0206 45.2946 66.8172 46.4454 66.7681 47.6076C66.6572 49.8539 66.8553 52.1046 67.357 54.2984C67.599 55.3598 67.8881 56.4132 68.2242 57.4587C68.5523 58.4987 68.947 59.517 69.406 60.5076C69.8583 61.5432 70.4888 62.4939 71.2694 63.3176C71.7147 63.7679 72.2705 64.097 72.8827 64.2729C73.5373 64.4264 74.2256 64.3519 74.8308 64.0619C75.3674 63.8079 75.8548 63.463 76.2707 63.043C76.6635 62.6588 77.0237 62.2435 77.3476 61.8011C77.9635 60.949 78.511 60.0507 78.9852 59.1145C79.8994 57.3091 80.6746 55.4384 81.3044 53.5183C81.6389 52.5741 81.9084 51.6087 82.111 50.6286C82.2861 49.6657 82.4113 48.6946 82.4861 47.7191C82.6394 45.7966 82.6959 43.9179 82.7201 42.0671C82.7725 38.3735 82.7201 34.8112 82.6676 31.3882C82.6152 27.9652 82.6233 24.6695 82.5224 21.5132C82.4982 20.7171 82.466 19.9211 82.4135 19.1569C82.3881 18.7501 82.341 18.3448 82.2724 17.9429C82.2609 17.8811 82.2461 17.82 82.228 17.7598C82.2037 17.6628 82.1671 17.5692 82.1191 17.4812C82.0586 17.4215 82.0667 17.2703 81.6432 17.131C81.5166 17.1056 81.3852 17.1169 81.265 17.1635C81.1448 17.2101 81.0408 17.29 80.9656 17.3936C80.8728 17.5807 80.9293 17.2941 80.8002 17.7917V17.8633L80.772 18.4285C80.6953 19.933 80.6389 21.3978 80.5945 22.8267C80.5058 25.6805 80.4937 28.399 80.538 30.9264C80.6106 35.0062 80.8163 39.0302 81.5746 42.9269C81.9455 44.8599 82.4853 46.7576 83.1879 48.5987C83.5348 49.5102 83.9301 50.3978 84.3576 51.2655C84.5593 51.7033 84.8013 52.1172 85.0231 52.5431C85.2567 53.0174 85.5567 53.4569 85.9145 53.8486C86.1478 54.0964 86.4384 54.2849 86.7615 54.3979C87.1585 54.5029 87.5813 54.4501 87.9392 54.2506C88.207 54.0856 88.4421 53.8738 88.633 53.6257C88.7975 53.4168 88.9458 53.1959 89.0766 52.965C89.5243 52.108 89.8851 51.2094 90.1535 50.2823C90.6703 48.5236 91.093 46.7394 91.42 44.9369C92.0895 41.3985 92.5614 37.9197 92.9729 34.5166C93.7795 27.7144 94.32 21.2067 94.7032 14.9896C94.7919 13.4333 94.8847 11.9049 94.9129 10.3606C94.9182 10.2647 94.9045 10.1687 94.8726 10.078C94.8086 9.90586 94.6798 9.76472 94.513 9.68391C94.3462 9.60311 94.1543 9.58886 93.9772 9.64413C93.8823 9.67195 93.7942 9.71884 93.7185 9.78186C93.6429 9.84488 93.5813 9.92266 93.5375 10.0103C93.5 10.0794 93.4767 10.1552 93.469 10.2332V10.3048L93.4407 10.4481L93.3439 11.0213C93.2875 11.3994 93.231 11.7736 93.1786 12.1517C93.0737 12.9 92.985 13.6403 92.9043 14.3806C92.5776 17.3339 92.3638 20.2236 92.2388 23.0416C92.1137 25.8596 92.0855 28.6139 92.1984 31.2966C92.2798 33.9275 92.6052 36.5455 93.1705 39.1178C93.4493 40.3926 93.911 41.6216 94.5418 42.7677C94.8769 43.3692 95.326 43.9016 95.8648 44.3359C96.4349 44.8048 97.1409 45.0834 97.8814 45.1319H98.1517H98.4179C98.633 45.1219 98.8453 45.0789 99.0471 45.0045C99.3943 44.8503 99.709 44.6329 99.9748 44.3637C100.422 43.9125 100.814 43.4101 101.14 42.8672C101.755 41.8672 102.294 40.8243 102.754 39.7467C103.617 37.7211 104.356 35.6464 104.968 33.5335C105.554 31.5589 106.034 29.5554 106.408 27.5313C106.589 26.5482 106.731 25.573 106.811 24.6019C106.86 24.1202 106.896 23.6347 106.908 23.153C106.908 22.9103 106.908 22.6675 106.908 22.4247C106.912 22.1693 106.898 21.914 106.868 21.6605C106.854 21.5458 106.826 21.4335 106.783 21.3261C106.732 21.205 106.647 21.1012 106.537 21.0276C106.263 20.7609 105.73 21.0276 105.73 21.0953C105.672 21.1483 105.623 21.2101 105.585 21.2784C105.567 21.3106 105.551 21.3438 105.537 21.3779C105.481 21.5185 105.438 21.6637 105.408 21.8117C105.351 22.0585 105.311 22.2893 105.275 22.5202C105.198 22.9819 105.141 23.4317 105.089 23.8814C104.99 24.773 104.912 25.6487 104.855 26.5084C104.734 28.2332 104.68 29.8956 104.694 31.4956C104.691 33.0478 104.795 34.5983 105.004 36.1366C105.107 36.8818 105.274 37.6169 105.504 38.3337C105.616 38.7053 105.768 39.0642 105.956 39.4044C106.176 39.7971 106.496 40.1264 106.884 40.3596C107.102 40.4799 107.343 40.556 107.592 40.5833C107.84 40.6106 108.092 40.5887 108.332 40.5188C108.722 40.4041 109.087 40.2192 109.409 39.9735C109.952 39.5582 110.442 39.0798 110.869 38.5486C111.629 37.6068 112.319 36.6118 112.934 35.5714C113.515 34.6042 114.031 33.6768 114.499 32.7852C114.967 31.8936 115.354 31.0459 115.757 30.2498L116.318 29.0836C116.407 28.8925 116.491 28.6856 116.576 28.4866L116.79 27.9134C117.238 26.625 117.615 25.3136 117.919 23.9849C118.173 22.8665 118.351 21.9431 118.476 21.1988C118.601 20.4544 118.677 19.9211 118.722 19.5589L118.79 19.0255C118.79 19.0255 118.815 18.8226 118.851 18.4086L118.927 17.6126C118.927 17.2941 118.964 16.924 118.988 16.4981C119.012 16.0722 118.988 15.5866 119.012 15.0453C119.036 14.504 118.984 13.899 118.891 13.2383C118.862 12.8905 118.811 12.5449 118.738 12.2034L118.633 11.6541C118.614 11.5521 118.59 11.4511 118.56 11.3516C118.523 11.2126 118.467 11.0788 118.395 10.9536C118.379 10.922 118.358 10.8926 118.335 10.8661C118.305 10.8235 118.269 10.7847 118.23 10.7506C118.193 10.7193 118.154 10.6913 118.113 10.667C118.063 10.6388 118.01 10.6161 117.955 10.5994C117.809 10.56 117.653 10.5684 117.512 10.6233C117.459 10.6581 117.412 10.6995 117.371 10.7467C117.343 10.7671 117.318 10.7897 117.294 10.8143L117.225 10.8899L117.193 10.9377L117.137 11.0332L117.108 11.0969C117.058 11.2259 117.019 11.3591 116.991 11.4949C116.943 11.7218 116.915 11.9288 116.891 12.1437C116.842 12.5656 116.81 12.9955 116.782 13.4373C116.608 16.9598 116.697 21.3978 117 26.8069C117.302 32.216 117.871 38.6441 118.944 46.0712C119.484 49.7848 120.154 53.7531 121.037 57.9642C121.92 62.1753 123.017 66.6093 124.481 71.2462C124.85 72.4085 125.245 73.58 125.667 74.7608L126.252 76.3529L125.974 76.2494C124.832 75.7877 123.63 75.1827 122.404 74.6573C121.178 74.1319 119.908 73.5986 118.601 73.1329C115.908 72.1648 113.117 71.4882 110.276 71.1149C107.276 70.723 104.237 70.723 101.237 71.1149C98.0881 71.5559 95.0112 72.4029 92.0855 73.6344C89.0287 74.9103 86.1222 76.5119 83.4178 78.4107C77.88 82.2874 72.8948 87.3383 68.3613 93.0699C66.0946 95.9436 63.9314 98.9845 61.8717 102.193C60.8391 103.785 59.8281 105.421 58.8386 107.1L58.4715 107.729L57.7536 108.967L57.3906 109.6L57.3019 109.755C57.3019 109.791 57.3019 109.807 57.3019 109.831V109.97V110.523C57.3019 110.563 57.3019 110.627 57.3019 110.651C57.3019 110.674 57.3422 110.718 57.3825 110.77C57.4727 110.885 57.5887 110.978 57.7213 111.041C57.7956 111.08 57.876 111.107 57.9593 111.12H58.1368C58.2287 111.117 58.3196 111.101 58.407 111.072C58.575 111.018 58.7253 110.92 58.8426 110.79L59.9114 109.759L78.0131 92.3415C90.7827 80.0664 108.36 63.1624 128.587 43.8503C133.653 39.0262 138.872 34.043 144.269 29C149.666 23.9571 155.365 18.9937 161.274 14.0662L165.71 10.3486C166.457 9.72373 167.203 9.09485 167.941 8.45005C168.312 8.12766 168.679 7.7973 169.042 7.455L169.316 7.19628L169.385 7.12862C169.417 7.10094 169.447 7.07029 169.473 7.03707L169.711 6.78632L169.949 6.53158L170.143 6.26491C170.208 6.18372 170.266 6.09716 170.316 6.00619L170.405 5.76738C170.437 5.70046 170.45 5.62602 170.441 5.55244V5.45294L170.413 5.35741C170.392 5.28689 170.358 5.2208 170.312 5.16238C170.275 5.11193 170.23 5.06759 170.179 5.03103C169.838 4.85355 169.444 4.79868 169.066 4.8758C168.836 4.8957 168.562 4.93153 168.356 4.95939L167.981 5.01511L167.239 5.14248C166.255 5.31761 165.283 5.5405 164.315 5.73951C162.375 6.17336 160.447 6.64701 158.515 7.14454C150.803 9.13466 143.107 11.4392 135.42 13.8711C113.495 20.8565 91.658 29.0279 70.7531 37.5734C65.5313 39.7148 60.3659 41.8761 55.257 44.0572L47.2548 47.5161L46.6336 47.7907L44.7904 48.5868C43.3527 49.2116 42.0113 50.033 40.8054 51.0266C42.3576 50.8064 43.8721 50.3779 45.3067 49.753L47.1499 48.9569L47.7751 48.6823L55.7652 45.2274C60.8553 43.0542 66.0126 40.8969 71.2371 38.7556C92.1178 30.218 113.93 22.0585 135.823 15.0891C143.487 12.6611 151.174 10.3645 158.85 8.38239C160.765 7.88884 162.685 7.41519 164.605 6.98931C165.565 6.77438 166.525 6.57138 167.481 6.40023L168.195 6.27685L168.55 6.2251L168.183 6.57934C167.832 6.90174 167.477 7.22414 167.114 7.54256C166.384 8.17542 165.646 8.80032 164.904 9.42521L160.467 13.1388C154.546 18.0782 148.819 23.0575 143.41 28.1164C138.001 33.1753 132.786 38.1546 127.72 42.9786C107.489 62.2947 89.9156 79.1988 77.146 91.4738L59.5646 108.394L59.9316 107.769C60.9131 106.108 61.9147 104.485 62.9365 102.901C64.9814 99.7169 67.115 96.7118 69.3576 93.8779C73.8346 88.214 78.7432 83.2506 84.1479 79.4694C86.774 77.6144 89.598 76.0488 92.5695 74.8006C95.3974 73.6286 98.3682 72.8258 101.407 72.4124C104.296 72.0298 107.224 72.0231 110.115 72.3926C112.867 72.753 115.572 73.4082 118.181 74.3468C119.456 74.8006 120.69 75.3061 121.896 75.8394C123.102 76.3728 124.26 76.9459 125.526 77.4594L125.772 77.5509L125.95 77.6106L126.163 77.6703C126.442 77.759 126.74 77.7673 127.022 77.6942C127.148 77.6551 127.262 77.5886 127.358 77.4997C127.454 77.4108 127.528 77.3018 127.575 77.1808C127.658 76.9136 127.658 76.628 127.575 76.3608C127.462 76.0026 127.426 75.919 127.361 75.7479L127.188 75.2822L126.869 74.4066C126.466 73.2403 126.063 72.0821 125.695 70.9318C124.235 66.3386 123.146 61.9245 122.263 57.7493C121.38 53.574 120.718 49.6296 120.182 45.9359C119.117 38.5486 118.569 32.1683 118.25 26.779C117.953 22.3753 117.88 17.9597 118.032 13.5487C118.056 13.1189 118.089 12.7089 118.133 12.3268C118.153 12.1358 118.181 11.9487 118.214 11.7935C118.225 11.7382 118.24 11.6838 118.258 11.6303L118.21 11.6064L118.105 11.5546C118.051 11.5336 117.999 11.5069 117.951 11.475C117.899 11.4352 117.867 11.4193 117.843 11.3954C117.827 11.3828 117.813 11.3681 117.802 11.3516V11.3516C117.802 11.3039 117.802 11.3516 117.754 11.3994C117.725 11.4335 117.691 11.4631 117.653 11.487L117.504 11.5825C117.451 11.615 117.396 11.643 117.338 11.6661V11.6661C117.341 11.6752 117.341 11.6848 117.338 11.6939C117.349 11.7239 117.359 11.7545 117.367 11.7855C117.39 11.8627 117.408 11.9411 117.423 12.0203L117.516 12.5139C117.583 12.8277 117.631 13.1454 117.657 13.4652C117.742 14.0701 117.738 14.6592 117.77 15.1528C117.802 15.6463 117.77 16.1279 117.77 16.5379C117.77 16.9479 117.726 17.3021 117.709 17.6046L117.637 18.3608C117.601 18.7589 117.576 18.9619 117.576 18.9619L117.508 19.4793C117.467 19.8256 117.391 20.3549 117.27 21.0714C117.149 21.7878 116.975 22.6635 116.729 23.774C116.436 25.0556 116.073 26.3206 115.64 27.5632L115.443 28.0965C115.366 28.2716 115.297 28.4388 115.213 28.6259L114.656 29.7762C114.273 30.5722 113.85 31.4041 113.394 32.2757C112.938 33.1474 112.43 34.0629 111.865 34.9982C111.287 35.9719 110.639 36.9031 109.925 37.7844C109.571 38.2343 109.165 38.6417 108.715 38.9984C108.517 39.1517 108.293 39.2689 108.054 39.3446C107.972 39.3723 107.885 39.3828 107.799 39.3752C107.713 39.3677 107.629 39.3423 107.553 39.3009C107.235 39.1337 106.912 38.5605 106.719 37.9635C106.512 37.3141 106.362 36.6482 106.271 35.9734C106.07 34.4918 105.97 32.9984 105.972 31.5036C105.972 29.938 106.025 28.3088 106.13 26.6159C106.19 25.7681 106.263 24.9083 106.364 24.0406C106.412 23.6068 106.468 23.169 106.537 22.7351C106.573 22.5202 106.61 22.3053 106.654 22.1062C106.674 22.0187 106.71 21.8993 106.714 21.8873L106.436 21.756C106.368 21.7182 106.302 21.677 106.239 21.6326C106.19 21.5809 106.214 21.5689 106.194 21.5928C106.15 21.6348 106.096 21.6661 106.037 21.6843C105.942 21.7206 105.845 21.7512 105.746 21.7759L105.65 21.8037V21.8475C105.67 22.0525 105.68 22.2585 105.678 22.4645C105.678 22.6874 105.678 22.9063 105.678 23.1331C105.678 23.5869 105.634 24.0446 105.589 24.5063C105.5 25.4297 105.363 26.377 105.186 27.3323C104.818 29.3133 104.347 31.2742 103.774 33.2071C103.177 35.27 102.455 37.2956 101.612 39.273C101.178 40.2929 100.671 41.2812 100.096 42.2303C99.8211 42.6868 99.4935 43.1103 99.1197 43.4921C98.9695 43.6465 98.7935 43.7744 98.5994 43.8702C98.4007 43.9208 98.1944 43.9356 97.9903 43.914C97.0344 43.8781 96.2197 43.1498 95.6591 42.1746C95.0714 41.1255 94.6407 39.9981 94.3805 38.8272C93.84 36.3396 93.5335 33.808 93.4649 31.2648C93.352 28.6259 93.3802 25.9034 93.5012 23.1132C93.6222 20.3231 93.84 17.4573 94.1627 14.5358C94.2434 13.8075 94.3321 13.0711 94.4329 12.3348C94.4854 11.9726 94.5378 11.6024 94.5943 11.2362L94.687 10.6909L94.7112 10.5596V10.4919C95.163 10.5596 94.1103 10.3208 94.1909 10.3446C94.1909 10.3208 94.1909 10.3685 94.1909 10.3446C94.1909 10.3208 94.1909 10.3446 94.1909 10.3446C94.2837 10.3446 93.1866 10.3446 93.6505 10.3765C93.6222 11.8651 93.5335 13.4054 93.4448 14.9498C93.0414 21.139 92.5211 27.6308 91.7185 34.4052C91.3151 37.7884 90.8392 41.2472 90.1818 44.7538C89.8622 46.5118 89.4502 48.2521 88.9476 49.9679C88.7054 50.8094 88.3798 51.6253 87.9755 52.4038C87.8172 52.7152 87.5897 52.9873 87.31 53.1999C87.2562 53.2339 87.1914 53.2467 87.1285 53.2357C87.0078 53.1824 86.9004 53.1036 86.8139 53.0048C86.5406 52.696 86.3113 52.3519 86.1323 51.9819C85.9226 51.5839 85.6846 51.1859 85.491 50.748C85.0876 49.9162 84.6843 49.0644 84.3697 48.1887C83.6937 46.4146 83.1741 44.5862 82.8169 42.7239C82.0828 38.9506 81.8771 34.9863 81.8045 30.9384C81.7601 28.4149 81.7722 25.7362 81.861 22.8943C81.9013 21.4774 81.9618 20.0166 82.0384 18.5161L82.0667 17.9549V17.8872C81.748 18.2534 81.744 17.8872 81.623 17.9071C81.5302 17.8394 81.5101 17.7877 81.5181 17.7956C81.4742 17.8517 81.4176 17.8967 81.3528 17.927C81.2419 17.9834 81.1273 18.0326 81.0099 18.0743V18.0981L81.0341 18.1937C81.0906 18.5002 81.1229 18.8862 81.1511 19.2564C81.2035 20.0087 81.2358 20.7808 81.26 21.561C81.3568 24.6974 81.3649 27.9851 81.4012 31.416C81.4375 34.847 81.506 38.3974 81.4576 42.0631C81.4294 43.8941 81.377 45.7568 81.2237 47.6355C81.139 48.5669 81.0462 49.5062 80.8688 50.4216C80.6803 51.3489 80.4283 52.2625 80.1145 53.1561C79.5035 55.0139 78.7539 56.8245 77.872 58.5732C77.4282 59.4485 76.9158 60.2883 76.3393 61.0847C75.8256 61.8551 75.1345 62.4947 74.3226 62.9514C73.9769 63.1215 73.5825 63.1693 73.2054 63.0868C72.8061 62.9647 72.4441 62.7457 72.1527 62.4499C71.4781 61.7302 70.9325 60.9024 70.5393 60.0021C70.1032 59.0608 69.7287 58.093 69.4181 57.1045C69.0954 56.1014 68.8131 55.0825 68.5791 54.0476C68.0851 51.9779 67.8748 49.852 67.954 47.727C67.999 46.6746 68.182 45.6324 68.4985 44.6264C68.6517 44.1423 68.8644 43.6785 69.1317 43.2453C69.3624 42.8486 69.6895 42.5148 70.0836 42.2741C70.2419 42.1752 70.4231 42.1179 70.6101 42.1074C70.7972 42.097 70.9838 42.1338 71.1524 42.2144C71.5536 42.4283 71.8892 42.7444 72.1244 43.1299C72.6688 44.0415 73.0393 45.0438 73.2175 46.0872C73.5919 48.303 73.6733 50.5574 73.4595 52.7939C73.0844 57.3353 72.0841 61.9484 69.7569 66.0162C69.6197 66.2709 69.4665 66.5177 69.3051 66.7605C69.1438 67.0033 68.9986 67.2541 68.8332 67.4969C68.4904 67.9665 68.1597 68.4481 67.7765 68.8899C67.3933 69.3317 67.0102 69.7696 66.6149 70.2034C66.2196 70.6373 65.78 71.0273 65.3282 71.3975C63.5273 72.9272 61.4886 74.1609 59.2903 75.0513C57.0349 75.9546 54.6874 76.6151 52.2884 77.0216C51.6874 77.129 51.0784 77.2285 50.4653 77.3241L49.5457 77.4554L49.0859 77.5231L48.5939 77.6067C47.2492 77.8369 45.9861 78.4013 44.9235 79.2465C43.7928 80.1319 43.0551 81.4165 42.8665 82.8287C42.7951 83.565 42.9232 84.3067 43.2376 84.9781C43.5671 85.6303 44.0531 86.1933 44.6533 86.6179C45.2278 87.0185 45.8657 87.3225 46.5409 87.5175C46.8676 87.6176 47.2003 87.6974 47.5371 87.7563C47.8889 87.8145 48.2453 87.8412 48.6019 87.8359C49.9932 87.7687 51.338 87.3208 52.486 86.5423C53.5927 85.8189 54.5977 84.9543 55.4748 83.9711C56.3465 83.0103 57.1434 81.9857 57.8585 80.9063C59.2744 78.742 60.4585 76.4383 61.3917 74.0324C62.3609 71.6377 63.0511 69.142 63.4487 66.5933C63.6468 65.2989 63.7117 63.9881 63.6423 62.6808C63.5981 61.3132 63.238 59.9736 62.5896 58.7642C62.409 58.452 62.1969 58.1586 61.9564 57.8886C61.8313 57.7572 61.6982 57.6219 61.553 57.4905L61.1739 57.1602C60.6521 56.7286 60.0934 56.3424 59.5041 56.0059C58.9077 55.6741 58.2812 55.3983 57.6326 55.182C56.9764 54.9718 56.301 54.8251 55.6159 54.7442C54.2688 54.5923 52.9053 54.665 51.5826 54.9591C50.2792 55.2496 49.0158 55.6932 47.8195 56.2806C45.4644 57.4588 43.3396 59.0395 41.5436 60.9494C40.6152 61.9057 39.8154 62.9758 39.1639 64.1336C38.8165 64.7422 38.5662 65.4 38.4217 66.0839C38.34 66.4778 38.34 66.884 38.4217 67.2779C38.5213 67.717 38.7687 68.1099 39.1235 68.3924C39.4661 68.6368 39.8631 68.7965 40.2811 68.8581C40.6539 68.9224 41.0337 68.9371 41.4105 68.9019C42.127 68.8138 42.8199 68.5908 43.4513 68.2451C44.6201 67.5863 45.6707 66.7417 46.561 65.7456C48.2895 63.8259 49.7059 61.6534 50.7598 59.3055C51.8401 56.9829 52.5646 54.5147 52.9095 51.9819C53.2954 49.423 53.0321 46.8095 52.1432 44.3757C51.9049 43.7687 51.6148 43.1828 51.276 42.6244C50.9324 42.0692 50.5425 41.5434 50.1104 41.0522C49.2375 40.0788 48.2088 39.2532 47.0652 38.6083C44.808 37.4189 42.3274 36.6995 39.7769 36.4948C37.2716 36.2636 34.7446 36.4765 32.3152 37.1237C29.9301 37.7641 27.6498 38.7371 25.5432 40.0133C23.4746 41.2679 21.5466 42.7356 19.7917 44.3916C18.0628 46.0037 16.4723 47.7543 15.0364 49.6256C13.6187 51.4619 12.3445 53.4019 11.2248 55.4288C10.1094 57.4272 9.1871 59.5247 8.47005 61.6937C8.29258 62.235 8.13931 62.7843 8.00218 63.3335L7.86908 63.9226V63.9943L7.84085 64.1375C7.7211 64.7184 7.63759 65.3059 7.59078 65.8968C7.50216 66.7591 7.60681 67.6302 7.89731 68.4481C8.03335 68.8066 8.22671 69.1412 8.47005 69.4392C8.7302 69.7501 9.06028 69.9968 9.43402 70.1596V70.1596Z" stroke="black" strokeWidth="0.8" mask="url(#path-1-outside-1_254_229)"/>
<path d="M32.6823 83.6287L32.4823 83.6263L32.4823 83.6264L32.4823 83.627L32.4822 83.6293L32.4821 83.6382L32.4817 83.6731L32.4801 83.8053C32.4788 83.9191 32.477 84.0815 32.4749 84.2758C32.4708 84.6644 32.4659 85.1809 32.4626 85.6922C32.4593 86.2033 32.4577 86.7102 32.4602 87.0791C32.4614 87.2631 32.4636 87.4149 32.4673 87.5161C32.4691 87.5651 32.4715 87.6085 32.475 87.6386C32.4759 87.6466 32.4772 87.6565 32.4792 87.6668L32.4793 87.6673C32.4799 87.6704 32.4813 87.6776 32.4841 87.6872C32.4989 88.0913 32.528 88.4716 32.5727 88.7718C32.5958 88.9273 32.6239 89.0668 32.6584 89.1792C32.6756 89.2354 32.6957 89.2892 32.7199 89.3365C32.7429 89.3817 32.776 89.4338 32.8247 89.4743C32.8686 89.5108 32.9362 89.5479 33.0222 89.5426C33.1069 89.5375 33.1697 89.4936 33.2102 89.4529C33.284 89.3787 33.3368 89.2617 33.3814 89.1362C33.4754 88.872 33.5785 88.4286 33.7052 87.7679C33.8714 86.9836 34.0372 86.0306 34.1612 85.2751C34.2234 84.8968 34.2751 84.5672 34.3114 84.3323C34.3295 84.2148 34.3438 84.1209 34.3535 84.0564L34.3646 83.9823L34.3675 83.9631L34.3682 83.9582L34.3684 83.9569L34.3684 83.9566L34.3684 83.9565L34.3689 83.9565L34.3699 83.9432L35.5799 68.8189L35.5799 68.8183L37.0762 50.8208L37.0763 50.8203L37.286 48.365L37.2885 48.3347L37.2821 48.3051C37.267 48.2364 37.2384 48.1714 37.1981 48.1138L37.1981 48.1138L37.1968 48.1119C36.8698 47.6563 36.5103 47.4973 36.1648 47.5551C35.8545 47.6071 35.6178 47.8262 35.4836 47.9964C35.4567 48.0223 35.4345 48.0528 35.4181 48.0867C35.399 48.1261 35.3883 48.1691 35.3865 48.2129L35.1652 50.6864L35.1652 50.6864L35.1651 50.6877L33.693 68.3878L33.6929 68.3885L32.4829 83.6129L32.4825 83.6129L32.4823 83.6262L32.6823 83.6287ZM32.6719 87.5975C32.6691 87.5637 32.6669 87.5094 32.6651 87.4383C32.6231 87.4412 32.5897 87.4569 32.5669 87.4725C32.5253 87.501 32.507 87.5371 32.5029 87.5451L32.5028 87.5453C32.4962 87.5583 32.4928 87.5688 32.4914 87.573L32.6719 87.5975Z" fill="#1D1D1B" stroke="black" strokeWidth="0.4"/>
</svg>
