<svg width="270" height="176" viewBox="0 0 270 176" fill="none" xmlns="http://www.w3.org/2000/svg">
<mask id="path-1-outside-1_228_255" maskUnits="userSpaceOnUse" x="10.4678" y="6.34613" width="249" height="163" fill="black">
<rect fill="white" x="10.4678" y="6.34613" width="249" height="163"/>
<path d="M14.3101 106.449C13.6807 105.596 13.3364 104.57 13.3251 103.514C13.2674 102.379 13.2919 101.24 13.3985 100.108C13.473 99.283 13.5935 98.4624 13.7594 97.6503L13.8023 97.451V97.3484L13.9981 96.515C14.1938 95.7239 14.4141 94.9388 14.6649 94.1537C15.7145 90.9819 17.0644 87.9146 18.6967 84.9926C20.3506 82.0031 22.2301 79.1406 24.3191 76.4293C26.4407 73.6738 28.7899 71.0964 31.3426 68.7236C33.9122 66.309 36.7365 64.1731 39.7671 62.3525C42.8117 60.5077 46.108 59.1024 49.5559 58.1795C53.0231 57.2521 56.631 56.9473 60.2074 57.2797C63.8045 57.5652 67.3045 58.5743 70.4917 60.2449C72.0384 61.1109 73.4312 62.2206 74.6153 63.5301C75.7914 64.8477 76.7178 66.3635 77.35 68.005C78.581 71.4044 78.9404 75.0517 78.3962 78.6215C77.8951 82.2758 76.8499 85.837 75.2944 89.1897C73.7791 92.5784 71.7422 95.7154 69.2559 98.4897C68.0521 99.8434 66.6324 100.994 65.0528 101.896C64.3155 102.299 63.5084 102.563 62.6729 102.675C61.9538 102.779 61.2202 102.638 60.5928 102.276C60.3831 102.111 60.2399 101.878 60.189 101.618C60.1217 101.269 60.1217 100.91 60.189 100.561C60.3732 99.7149 60.6846 98.9007 61.1128 98.1455C62.0263 96.5466 63.1427 95.0692 64.4349 93.7491C67.0246 91.024 70.0843 88.7748 73.4712 87.1063C76.83 85.4818 80.5803 84.5095 84.2206 84.9564C86.0339 85.1713 87.7854 85.7421 89.3719 86.6352C90.1648 87.0892 90.916 87.6105 91.6172 88.1933L92.1373 88.6402C92.3025 88.7911 92.437 88.93 92.5839 89.081C92.8613 89.3949 93.1072 89.7347 93.318 90.0956C94.1476 91.6801 94.6075 93.4278 94.664 95.2106C94.759 97.0651 94.6647 98.9245 94.3826 100.76C93.7977 104.484 92.7879 108.131 91.3725 111.631C89.9966 115.138 88.2559 118.496 86.1783 121.649C85.1511 123.208 84.0036 124.686 82.7461 126.07C81.5292 127.438 80.1345 128.643 78.5981 129.651C77.1536 130.641 75.4594 131.215 73.7037 131.312C73.2937 131.317 72.8841 131.284 72.4801 131.215C72.0476 131.139 71.6205 131.037 71.2014 130.907C70.3809 130.676 69.6055 130.31 68.9072 129.826C68.2537 129.368 67.7243 128.758 67.3654 128.051C67.0389 127.348 66.906 126.573 66.98 125.804C67.2226 124.164 68.0998 122.682 69.4272 121.667C70.7892 120.59 72.4058 119.871 74.1258 119.578L74.7805 119.469L75.484 119.366L76.8973 119.161C77.8395 119.022 78.7816 118.865 79.7177 118.696C83.4915 118.055 87.1838 117.012 90.7301 115.586C94.2784 114.157 97.5679 112.169 100.47 109.698C101.198 109.094 101.865 108.418 102.544 107.766C103.223 107.113 103.841 106.389 104.422 105.646C105.003 104.903 105.566 104.16 106.117 103.405C106.38 103.019 106.625 102.62 106.876 102.228C107.126 101.835 107.377 101.443 107.597 101.02C109.414 97.8085 110.794 94.3751 111.703 90.8082C112.597 87.3177 113.184 83.7576 113.459 80.1675C113.794 76.6045 113.66 73.0136 113.061 69.4845C112.746 67.6572 112.088 65.9041 111.121 64.3152C110.571 63.4297 109.781 62.7142 108.839 62.2498C108.308 61.9998 107.721 61.8856 107.132 61.9177C106.554 61.9518 105.99 62.1171 105.487 62.4008C104.608 62.9237 103.874 63.6542 103.352 64.5265C102.863 65.314 102.475 66.1578 102.195 67.0387C101.66 68.7228 101.352 70.4689 101.278 72.2323C101.109 75.6404 101.41 79.0553 102.171 82.3838C102.538 83.9942 102.976 85.5925 103.486 87.1787C103.984 88.7566 104.583 90.3017 105.279 91.8046C105.965 93.3759 106.921 94.8184 108.105 96.0681C108.781 96.7514 109.624 97.2506 110.552 97.5175C111.545 97.7505 112.589 97.6374 113.507 97.1974C114.321 96.812 115.061 96.2887 115.692 95.6514C116.287 95.0685 116.834 94.4383 117.325 93.7673C118.259 92.4743 119.09 91.1114 119.809 89.6909C121.196 86.9518 122.372 84.1135 123.327 81.2001C123.834 79.7676 124.243 78.3028 124.55 76.8158C124.816 75.3548 125.006 73.8814 125.119 72.4013C125.352 69.4845 125.438 66.6341 125.474 63.826C125.554 58.2218 125.474 52.8169 125.395 47.6234C125.315 42.4299 125.327 37.4296 125.175 32.6407C125.138 31.4329 125.089 30.2251 125.009 29.0656C124.971 28.4484 124.899 27.8336 124.795 27.2237C124.778 27.13 124.755 27.0373 124.728 26.9459C124.691 26.7988 124.635 26.6567 124.563 26.5232C124.471 26.4326 124.483 26.2032 123.841 25.9918C123.649 25.9533 123.45 25.9704 123.267 26.0411C123.085 26.1119 122.927 26.2331 122.813 26.3904C122.672 26.6742 122.758 26.2394 122.562 26.9943V27.103L122.519 27.9605C122.403 30.2432 122.317 32.4656 122.25 34.6336C122.116 38.9635 122.097 43.0881 122.164 46.9229C122.275 53.1128 122.587 59.2183 123.737 65.1304C124.299 68.0633 125.118 70.9425 126.184 73.736C126.71 75.1189 127.31 76.4656 127.958 77.7821C128.264 78.4464 128.631 79.0744 128.968 79.7206C129.322 80.4402 129.777 81.107 130.32 81.7014C130.674 82.0774 131.114 82.3633 131.605 82.5348C132.207 82.6941 132.848 82.6139 133.391 82.3113C133.797 82.0609 134.154 81.7396 134.443 81.3632C134.693 81.0462 134.918 80.7111 135.116 80.3607C135.795 79.0604 136.343 77.697 136.75 76.2904C137.534 73.6221 138.175 70.9149 138.671 68.1801C139.686 62.8114 140.402 57.5334 141.026 52.37C142.25 42.0494 143.07 32.1757 143.651 22.7428C143.785 20.3816 143.926 18.0626 143.969 15.7195C143.977 15.574 143.956 15.4284 143.908 15.2907C143.811 15.0296 143.615 14.8154 143.362 14.6928C143.109 14.5702 142.818 14.5486 142.55 14.6325C142.406 14.6747 142.272 14.7458 142.157 14.8414C142.043 14.9371 141.949 15.0551 141.883 15.1881C141.826 15.2929 141.79 15.4078 141.779 15.5262V15.6349L141.736 15.8523L141.589 16.722C141.503 17.2957 141.418 17.8633 141.338 18.437C141.179 19.5724 141.045 20.6956 140.922 21.8189C140.427 26.2998 140.102 30.6841 139.913 34.9597C139.723 39.2353 139.68 43.4142 139.852 47.4845C139.975 51.4762 140.469 55.4483 141.326 59.3511C141.749 61.2853 142.449 63.15 143.406 64.8889C143.914 65.8015 144.596 66.6093 145.413 67.2682C146.278 67.9797 147.349 68.4025 148.472 68.476H148.882H149.286C149.612 68.4608 149.934 68.3956 150.24 68.2828C150.767 68.0487 151.244 67.7189 151.647 67.3105C152.326 66.6259 152.92 65.8636 153.415 65.0398C154.347 63.5227 155.165 61.9402 155.862 60.3053C157.172 57.2321 158.293 54.0841 159.221 50.8784C160.11 47.8825 160.839 44.8427 161.405 41.7716C161.681 40.28 161.895 38.8005 162.017 37.327C162.091 36.5962 162.146 35.8595 162.164 35.1288C162.164 34.7604 162.164 34.392 162.164 34.0236C162.169 33.6362 162.149 33.2489 162.103 32.8641C162.083 32.6903 162.039 32.5197 161.974 32.3569C161.898 32.1731 161.768 32.0156 161.601 31.904C161.185 31.4993 160.378 31.9039 160.378 32.0066C160.29 32.0871 160.215 32.1809 160.157 32.2844C160.13 32.3333 160.105 32.3837 160.084 32.4354C159.999 32.6488 159.934 32.869 159.888 33.0936C159.802 33.468 159.741 33.8183 159.686 34.1686C159.57 34.8691 159.484 35.5515 159.405 36.2339C159.254 37.5866 159.136 38.9152 159.05 40.2196C158.866 42.8365 158.785 45.3588 158.805 47.7865C158.801 50.1414 158.958 52.4939 159.276 54.8279C159.432 55.9586 159.685 57.0739 160.035 58.1614C160.205 58.7253 160.434 59.2698 160.72 59.7859C161.053 60.3818 161.538 60.8814 162.127 61.2353C162.459 61.4178 162.824 61.5332 163.201 61.5747C163.578 61.6161 163.96 61.5829 164.324 61.4768C164.915 61.3027 165.469 61.0222 165.957 60.6495C166.781 60.0194 167.524 59.2935 168.172 58.4875C169.325 57.0586 170.372 55.5489 171.304 53.9704C172.185 52.5029 172.968 51.0958 173.678 49.7431C174.388 48.3904 174.975 47.1041 175.587 45.8963L176.437 44.1268C176.572 43.837 176.7 43.5229 176.829 43.221L177.153 42.3514C177.833 40.3965 178.404 38.4068 178.866 36.3909C179.252 34.694 179.521 33.2929 179.71 32.1636C179.9 31.0343 180.016 30.2251 180.084 29.6756L180.188 28.8663C180.188 28.8663 180.224 28.5584 180.279 27.9303L180.396 26.7225C180.396 26.2394 180.451 25.6778 180.487 25.0316C180.524 24.3854 180.487 23.6487 180.524 22.8274C180.561 22.0061 180.481 21.0881 180.341 20.0857C180.296 19.558 180.218 19.0337 180.108 18.5155L179.949 17.6822C179.921 17.5274 179.884 17.3742 179.839 17.2232C179.782 17.0122 179.697 16.8092 179.588 16.6193C179.563 16.5714 179.532 16.5267 179.496 16.4864C179.451 16.4219 179.397 16.3631 179.337 16.3113C179.282 16.2637 179.223 16.2213 179.16 16.1845C179.084 16.1416 179.004 16.1072 178.921 16.0818C178.699 16.0221 178.463 16.0348 178.248 16.1181C178.169 16.1708 178.097 16.2338 178.034 16.3053C177.993 16.3363 177.954 16.3706 177.918 16.4079L177.814 16.5227L177.765 16.5951L177.679 16.7401L177.636 16.8367C177.559 17.0325 177.5 17.2345 177.459 17.4406C177.386 17.7848 177.343 18.0988 177.306 18.4249C177.233 19.0651 177.184 19.7173 177.141 20.3876C176.878 25.7321 177.012 32.4656 177.471 40.6725C177.93 48.8795 178.793 58.6325 180.42 69.9012C181.24 75.5356 182.256 81.5564 183.595 87.9457C184.935 94.3349 186.599 101.062 188.82 108.098C189.379 109.861 189.979 111.639 190.619 113.43L191.506 115.846L191.084 115.689C189.352 114.988 187.529 114.07 185.669 113.273C183.81 112.476 181.882 111.667 179.9 110.96C175.816 109.491 171.582 108.465 167.273 107.898C162.722 107.304 158.112 107.304 153.562 107.898C148.785 108.568 144.118 109.853 139.68 111.721C135.044 113.657 130.635 116.087 126.533 118.968C118.133 124.85 110.571 132.513 103.694 141.209C100.256 145.57 96.9746 150.183 93.8503 155.051C92.2841 157.466 90.7505 159.948 89.2496 162.497L88.6928 163.451L87.6038 165.329L87.0532 166.289L86.9186 166.525C86.9186 166.579 86.9186 166.603 86.9186 166.64V166.851V167.69C86.9186 167.751 86.9186 167.847 86.9186 167.884C86.9186 167.92 86.9798 167.986 87.041 168.065C87.1778 168.239 87.3537 168.38 87.5549 168.475C87.6675 168.535 87.7895 168.576 87.9158 168.596H88.185C88.3244 168.591 88.4624 168.567 88.5949 168.524C88.8497 168.441 89.0777 168.293 89.2557 168.095L90.8769 166.531L118.335 140.104C137.704 121.48 164.366 95.8326 195.048 66.5315C202.733 59.2122 210.649 51.6514 218.835 44C227.021 36.3486 235.666 28.818 244.629 21.3418L251.358 15.7014C252.49 14.7532 253.622 13.7991 254.742 12.8208C255.305 12.3316 255.861 11.8304 256.412 11.311L256.828 10.9185L256.932 10.8158C256.981 10.7738 257.026 10.7273 257.067 10.6769L257.428 10.2965L257.788 9.90999L258.082 9.50538C258.181 9.3822 258.269 9.25087 258.345 9.11284L258.48 8.7505C258.529 8.64897 258.548 8.53604 258.535 8.4244V8.27342L258.492 8.12849C258.46 8.02149 258.408 7.92121 258.339 7.83258C258.283 7.75603 258.215 7.68876 258.137 7.63329C257.619 7.364 257.022 7.28075 256.449 7.39777C256.1 7.42797 255.684 7.48232 255.372 7.52459L254.803 7.60914L253.677 7.80238C252.184 8.0681 250.71 8.40628 249.242 8.70823C246.299 9.36648 243.374 10.0851 240.444 10.84C228.746 13.8595 217.073 17.356 205.412 21.0459C172.155 31.6443 139.032 44.0423 107.322 57.008C99.4014 60.257 91.5662 63.5361 83.8168 66.8455L71.6786 72.0934L70.7365 72.51L67.9405 73.7178C65.7598 74.6659 63.725 75.9121 61.8959 77.4197C64.2504 77.0856 66.5475 76.4354 68.7236 75.4873L71.5196 74.2795L72.4679 73.8628L84.5876 68.6209C92.3086 65.3237 100.131 62.0505 108.056 58.8016C139.729 45.848 172.815 33.468 206.024 22.8938C217.648 19.21 229.309 15.7255 240.952 12.7181C243.858 11.9693 246.77 11.2506 249.682 10.6045C251.138 10.2784 252.594 9.97038 254.044 9.7107L255.127 9.52349L255.666 9.44499L255.109 9.98246C254.577 10.4716 254.038 10.9608 253.488 11.4439C252.38 12.4041 251.261 13.3522 250.135 14.3003L243.405 19.9347C234.424 27.4291 225.736 34.9838 217.532 42.6594C209.328 50.3349 201.417 57.8897 193.733 65.2089C163.045 94.5161 136.389 120.164 117.019 138.788L90.3508 164.46L90.9075 163.511C92.3963 160.991 93.9156 158.529 95.4655 156.126C98.5673 151.295 101.804 146.735 105.205 142.435C111.996 133.842 119.442 126.311 127.64 120.574C131.623 117.76 135.907 115.384 140.414 113.491C144.704 111.712 149.21 110.494 153.819 109.867C158.202 109.287 162.643 109.276 167.028 109.837C171.203 110.384 175.306 111.378 179.264 112.802C181.197 113.491 183.069 114.258 184.899 115.067C186.728 115.876 188.484 116.746 190.405 117.525L190.778 117.663L191.047 117.754L191.371 117.845C191.793 117.979 192.246 117.992 192.675 117.881C192.865 117.821 193.038 117.721 193.184 117.586C193.329 117.451 193.441 117.285 193.513 117.102C193.639 116.697 193.639 116.263 193.513 115.858C193.341 115.314 193.286 115.188 193.188 114.928L192.925 114.221L192.442 112.893C191.83 111.123 191.218 109.366 190.662 107.621C188.447 100.652 186.795 93.9545 185.455 87.6196C184.115 81.2847 183.112 75.3001 182.298 69.6959C180.683 58.4875 179.851 48.8071 179.368 40.6303C178.917 33.9488 178.807 27.2491 179.037 20.5567C179.074 19.9045 179.123 19.2825 179.19 18.7027C179.221 18.4129 179.264 18.129 179.313 17.8935C179.33 17.8098 179.353 17.7271 179.38 17.6459L179.307 17.6097L179.148 17.5312C179.066 17.4993 178.988 17.4588 178.915 17.4104C178.836 17.35 178.787 17.3259 178.75 17.2896C178.726 17.2705 178.706 17.2481 178.689 17.2232C178.689 17.1507 178.689 17.2232 178.615 17.2957C178.572 17.3474 178.52 17.3922 178.462 17.4285L178.236 17.5735C178.156 17.6228 178.072 17.6652 177.985 17.7003C177.989 17.7142 177.989 17.7286 177.985 17.7425C178.002 17.788 178.016 17.8344 178.028 17.8814C178.063 17.9986 178.091 18.1176 178.114 18.2377L178.254 18.9866C178.357 19.4627 178.428 19.9448 178.468 20.4299C178.597 21.3478 178.591 22.2416 178.64 22.9904C178.689 23.7393 178.64 24.47 178.64 25.092C178.64 25.714 178.572 26.2515 178.548 26.7104L178.438 27.8578C178.383 28.4617 178.346 28.7697 178.346 28.7697L178.242 29.5548C178.181 30.0802 178.065 30.8834 177.881 31.9704C177.698 33.0574 177.435 34.386 177.061 36.0708C176.617 38.0154 176.066 39.9346 175.409 41.82L175.11 42.6292C174.993 42.8949 174.889 43.1485 174.761 43.4324L173.917 45.1776C173.335 46.3854 172.693 47.6476 172.002 48.9701C171.31 50.2926 170.54 51.6816 169.683 53.1008C168.807 54.5781 167.823 55.9909 166.74 57.3281C166.203 58.0106 165.587 58.6288 164.905 59.1699C164.605 59.4025 164.265 59.5804 163.902 59.6953C163.777 59.7374 163.646 59.7532 163.515 59.7417C163.384 59.7303 163.258 59.6918 163.143 59.6289C162.66 59.3753 162.17 58.5056 161.876 57.5998C161.563 56.6144 161.335 55.6042 161.197 54.5803C160.892 52.3323 160.741 50.0666 160.745 47.7985C160.745 45.4232 160.824 42.9513 160.983 40.3827C161.075 39.0964 161.185 37.792 161.338 36.4755C161.411 35.8172 161.497 35.1529 161.601 34.4947C161.656 34.1686 161.711 33.8425 161.779 33.5405C161.809 33.4077 161.864 33.2265 161.87 33.2084L161.448 33.0091C161.345 32.9517 161.245 32.8892 161.148 32.8219C161.075 32.7434 161.112 32.7253 161.081 32.7615C161.013 32.8252 160.932 32.8727 160.842 32.9004C160.699 32.9555 160.552 33.0019 160.402 33.0393L160.255 33.0816V33.148C160.287 33.459 160.301 33.7715 160.298 34.084C160.298 34.4222 160.298 34.7543 160.298 35.0986C160.298 35.787 160.231 36.4815 160.163 37.182C160.029 38.5831 159.821 40.0203 159.552 41.4697C158.994 44.4753 158.279 47.4505 157.41 50.3832C156.505 53.513 155.41 56.5864 154.131 59.5866C153.473 61.1341 152.704 62.6335 151.831 64.0736C151.414 64.7662 150.917 65.4087 150.35 65.9879C150.122 66.2224 149.855 66.4164 149.561 66.5616C149.26 66.6385 148.947 66.661 148.637 66.6281C147.187 66.5737 145.951 65.4686 145.101 63.989C144.209 62.3974 143.556 60.6867 143.161 58.9103C142.342 55.136 141.877 51.2949 141.773 47.4362C141.601 43.4324 141.644 39.3017 141.828 35.0684C142.011 30.8351 142.342 26.487 142.831 22.0544C142.953 20.9492 143.088 19.832 143.241 18.7148C143.321 18.1653 143.4 17.6036 143.486 17.0481L143.626 16.2207L143.663 16.0214V15.9188C144.348 16.0214 142.752 15.6591 142.874 15.6953C142.874 15.6591 142.874 15.7316 142.874 15.6953C142.874 15.6591 142.874 15.6953 142.874 15.6953C143.015 15.6953 141.351 15.6953 142.054 15.7436C142.011 18.0022 141.877 20.3393 141.742 22.6824C141.13 32.073 140.341 41.9226 139.124 52.201C138.512 57.3341 137.79 62.582 136.793 67.9023C136.308 70.5696 135.683 73.2101 134.921 75.8134C134.553 77.0901 134.059 78.3281 133.446 79.5092C133.206 79.9816 132.861 80.3945 132.437 80.717C132.355 80.7687 132.257 80.7881 132.161 80.7714C131.978 80.6905 131.815 80.5709 131.684 80.4211C131.27 79.9526 130.922 79.4304 130.65 78.8691C130.332 78.2652 129.971 77.6613 129.677 76.997C129.066 75.7349 128.454 74.4425 127.977 73.1139C126.951 70.4222 126.163 67.648 125.621 64.8224C124.508 59.0975 124.196 53.0826 124.086 46.941C124.018 43.1123 124.037 39.0481 124.171 34.7362C124.232 32.5864 124.324 30.3701 124.44 28.0934L124.483 27.2419V27.1392C124 27.6948 123.994 27.1392 123.81 27.1694C123.669 27.0667 123.639 26.9882 123.651 27.0003C123.585 27.0853 123.499 27.1536 123.4 27.1996C123.232 27.2852 123.058 27.3598 122.88 27.423V27.4593L122.917 27.6042C123.003 28.0692 123.052 28.655 123.094 29.2166C123.174 30.358 123.223 31.5295 123.26 32.7132C123.406 37.4719 123.419 42.4601 123.474 47.6657C123.529 52.8713 123.633 58.2581 123.559 63.82C123.517 66.5979 123.437 69.4241 123.205 72.2745C123.076 73.6876 122.935 75.1128 122.666 76.5018C122.38 77.9087 121.998 79.2948 121.522 80.6506C120.595 83.4694 119.458 86.2165 118.12 88.8696C117.447 90.1978 116.67 91.4718 115.796 92.6802C115.016 93.8491 113.968 94.8196 112.737 95.5125C112.212 95.7706 111.614 95.8431 111.042 95.7178C110.436 95.5326 109.887 95.2004 109.445 94.7516C108.422 93.6596 107.594 92.4037 106.998 91.0376C106.336 89.6095 105.768 88.1411 105.297 86.6413C104.808 85.1194 104.379 83.5734 104.025 82.0033C103.275 78.863 102.956 75.6375 103.076 72.4134C103.145 70.8167 103.422 69.2354 103.902 67.7091C104.135 66.9745 104.457 66.2708 104.863 65.6135C105.213 65.0117 105.709 64.5052 106.307 64.14C106.547 63.99 106.822 63.903 107.105 63.8871C107.389 63.8713 107.672 63.9272 107.928 64.0494C108.536 64.3739 109.046 64.8536 109.402 65.4384C110.228 66.8215 110.79 68.3423 111.06 69.9254C111.628 73.2873 111.752 76.7078 111.427 80.101C110.858 86.9915 109.341 93.9907 105.811 100.163C105.603 100.549 105.371 100.923 105.126 101.292C104.881 101.66 104.661 102.041 104.41 102.409C103.89 103.122 103.388 103.852 102.807 104.523C102.226 105.193 101.645 105.857 101.045 106.516C100.446 107.174 99.7787 107.766 99.0934 108.327C96.3616 110.648 93.2692 112.52 89.9348 113.871C86.5137 115.241 82.9528 116.244 79.3139 116.86C78.4023 117.023 77.4785 117.174 76.5486 117.319L75.1537 117.519L74.4562 117.621L73.7098 117.748C71.6701 118.097 69.7542 118.954 68.1424 120.236C66.4273 121.58 65.3084 123.528 65.0222 125.671C64.9139 126.788 65.1082 127.914 65.5851 128.932C66.0849 129.922 66.8221 130.776 67.7325 131.42C68.6041 132.028 69.5716 132.489 70.5958 132.785C71.0913 132.937 71.596 133.058 72.1069 133.147C72.6405 133.236 73.1811 133.276 73.7221 133.268C75.8324 133.166 77.8724 132.487 79.6137 131.306C81.2924 130.208 82.8167 128.896 84.1471 127.404C85.4695 125.947 86.6782 124.392 87.7629 122.754C89.9106 119.471 91.7067 115.975 93.1223 112.325C94.5925 108.692 95.6393 104.905 96.2424 101.038C96.543 99.0743 96.6414 97.0854 96.5361 95.1019C96.469 93.0269 95.9229 90.9945 94.9393 89.1595C94.6654 88.6858 94.3436 88.2406 93.9788 87.8309C93.7891 87.6317 93.5872 87.4263 93.367 87.227L92.7919 86.7258C92.0004 86.071 91.1529 85.4851 90.259 84.9745C89.3545 84.4711 88.404 84.0526 87.4203 83.7244C86.4249 83.4054 85.4004 83.183 84.3613 83.0601C82.3178 82.8297 80.2497 82.9399 78.2433 83.3862C76.2662 83.8269 74.3498 84.5001 72.5352 85.3912C68.9629 87.1788 65.7399 89.5771 63.0155 92.4749C61.6074 93.9258 60.3942 95.5496 59.4059 97.3061C58.879 98.2296 58.4993 99.2276 58.2802 100.265C58.1563 100.863 58.1563 101.479 58.2802 102.077C58.4312 102.743 58.8064 103.339 59.3447 103.768C59.8643 104.139 60.4665 104.381 61.1006 104.474C61.6661 104.572 62.2422 104.594 62.8136 104.541C63.9006 104.407 64.9515 104.069 65.9094 103.544C67.6822 102.545 69.2759 101.263 70.6263 99.7519C73.2481 96.8393 75.3966 93.5432 76.9952 89.9808C78.6339 86.4569 79.7329 82.712 80.2561 78.8691C80.8414 74.9866 80.442 71.0214 79.0937 67.3286C78.7322 66.4077 78.2922 65.5188 77.7783 64.6714C77.2571 63.8292 76.6657 63.0313 76.0102 62.2861C74.6862 60.8091 73.1258 59.5565 71.3911 58.5781C67.9672 56.7735 64.2045 55.6821 60.3359 55.3714C56.5356 55.0206 52.7025 55.3437 49.0175 56.3256C45.3996 57.2973 41.9407 58.7736 38.7454 60.7099C35.6075 62.6134 32.683 64.8402 30.0211 67.3528C27.3987 69.7987 24.9861 72.4549 22.808 75.294C20.6576 78.0801 18.7248 81.0235 17.0265 84.0988C15.3346 87.1309 13.9355 90.3134 12.8479 93.6042C12.5787 94.4255 12.3462 95.2589 12.1382 96.0923L11.9363 96.986V97.0947L11.8935 97.3121C11.7118 98.1934 11.5851 99.0848 11.5141 99.9814C11.3797 101.29 11.5385 102.611 11.9791 103.852C12.1855 104.396 12.4788 104.904 12.8479 105.356C13.2425 105.828 13.7432 106.202 14.3101 106.449Z"/>
</mask>
<path d="M14.3101 106.449C13.6807 105.596 13.3364 104.57 13.3251 103.514C13.2674 102.379 13.2919 101.24 13.3985 100.108C13.473 99.283 13.5935 98.4624 13.7594 97.6503L13.8023 97.451V97.3484L13.9981 96.515C14.1938 95.7239 14.4141 94.9388 14.6649 94.1537C15.7145 90.9819 17.0644 87.9146 18.6967 84.9926C20.3506 82.0031 22.2301 79.1406 24.3191 76.4293C26.4407 73.6738 28.7899 71.0964 31.3426 68.7236C33.9122 66.309 36.7365 64.1731 39.7671 62.3525C42.8117 60.5077 46.108 59.1024 49.5559 58.1795C53.0231 57.2521 56.631 56.9473 60.2074 57.2797C63.8045 57.5652 67.3045 58.5743 70.4917 60.2449C72.0384 61.1109 73.4312 62.2206 74.6153 63.5301C75.7914 64.8477 76.7178 66.3635 77.35 68.005C78.581 71.4044 78.9404 75.0517 78.3962 78.6215C77.8951 82.2758 76.8499 85.837 75.2944 89.1897C73.7791 92.5784 71.7422 95.7154 69.2559 98.4897C68.0521 99.8434 66.6324 100.994 65.0528 101.896C64.3155 102.299 63.5084 102.563 62.6729 102.675C61.9538 102.779 61.2202 102.638 60.5928 102.276C60.3831 102.111 60.2399 101.878 60.189 101.618C60.1217 101.269 60.1217 100.91 60.189 100.561C60.3732 99.7149 60.6846 98.9007 61.1128 98.1455C62.0263 96.5466 63.1427 95.0692 64.4349 93.7491C67.0246 91.024 70.0843 88.7748 73.4712 87.1063C76.83 85.4818 80.5803 84.5095 84.2206 84.9564C86.0339 85.1713 87.7854 85.7421 89.3719 86.6352C90.1648 87.0892 90.916 87.6105 91.6172 88.1933L92.1373 88.6402C92.3025 88.7911 92.437 88.93 92.5839 89.081C92.8613 89.3949 93.1072 89.7347 93.318 90.0956C94.1476 91.6801 94.6075 93.4278 94.664 95.2106C94.759 97.0651 94.6647 98.9245 94.3826 100.76C93.7977 104.484 92.7879 108.131 91.3725 111.631C89.9966 115.138 88.2559 118.496 86.1783 121.649C85.1511 123.208 84.0036 124.686 82.7461 126.07C81.5292 127.438 80.1345 128.643 78.5981 129.651C77.1536 130.641 75.4594 131.215 73.7037 131.312C73.2937 131.317 72.8841 131.284 72.4801 131.215C72.0476 131.139 71.6205 131.037 71.2014 130.907C70.3809 130.676 69.6055 130.31 68.9072 129.826C68.2537 129.368 67.7243 128.758 67.3654 128.051C67.0389 127.348 66.906 126.573 66.98 125.804C67.2226 124.164 68.0998 122.682 69.4272 121.667C70.7892 120.59 72.4058 119.871 74.1258 119.578L74.7805 119.469L75.484 119.366L76.8973 119.161C77.8395 119.022 78.7816 118.865 79.7177 118.696C83.4915 118.055 87.1838 117.012 90.7301 115.586C94.2784 114.157 97.5679 112.169 100.47 109.698C101.198 109.094 101.865 108.418 102.544 107.766C103.223 107.113 103.841 106.389 104.422 105.646C105.003 104.903 105.566 104.16 106.117 103.405C106.38 103.019 106.625 102.62 106.876 102.228C107.126 101.835 107.377 101.443 107.597 101.02C109.414 97.8085 110.794 94.3751 111.703 90.8082C112.597 87.3177 113.184 83.7576 113.459 80.1675C113.794 76.6045 113.66 73.0136 113.061 69.4845C112.746 67.6572 112.088 65.9041 111.121 64.3152C110.571 63.4297 109.781 62.7142 108.839 62.2498C108.308 61.9998 107.721 61.8856 107.132 61.9177C106.554 61.9518 105.99 62.1171 105.487 62.4008C104.608 62.9237 103.874 63.6542 103.352 64.5265C102.863 65.314 102.475 66.1578 102.195 67.0387C101.66 68.7228 101.352 70.4689 101.278 72.2323C101.109 75.6404 101.41 79.0553 102.171 82.3838C102.538 83.9942 102.976 85.5925 103.486 87.1787C103.984 88.7566 104.583 90.3017 105.279 91.8046C105.965 93.3759 106.921 94.8184 108.105 96.0681C108.781 96.7514 109.624 97.2506 110.552 97.5175C111.545 97.7505 112.589 97.6374 113.507 97.1974C114.321 96.812 115.061 96.2887 115.692 95.6514C116.287 95.0685 116.834 94.4383 117.325 93.7673C118.259 92.4743 119.09 91.1114 119.809 89.6909C121.196 86.9518 122.372 84.1135 123.327 81.2001C123.834 79.7676 124.243 78.3028 124.55 76.8158C124.816 75.3548 125.006 73.8814 125.119 72.4013C125.352 69.4845 125.438 66.6341 125.474 63.826C125.554 58.2218 125.474 52.8169 125.395 47.6234C125.315 42.4299 125.327 37.4296 125.175 32.6407C125.138 31.4329 125.089 30.2251 125.009 29.0656C124.971 28.4484 124.899 27.8336 124.795 27.2237C124.778 27.13 124.755 27.0373 124.728 26.9459C124.691 26.7988 124.635 26.6567 124.563 26.5232C124.471 26.4326 124.483 26.2032 123.841 25.9918C123.649 25.9533 123.45 25.9704 123.267 26.0411C123.085 26.1119 122.927 26.2331 122.813 26.3904C122.672 26.6742 122.758 26.2394 122.562 26.9943V27.103L122.519 27.9605C122.403 30.2432 122.317 32.4656 122.25 34.6336C122.116 38.9635 122.097 43.0881 122.164 46.9229C122.275 53.1128 122.587 59.2183 123.737 65.1304C124.299 68.0633 125.118 70.9425 126.184 73.736C126.71 75.1189 127.31 76.4656 127.958 77.7821C128.264 78.4464 128.631 79.0744 128.968 79.7206C129.322 80.4402 129.777 81.107 130.32 81.7014C130.674 82.0774 131.114 82.3633 131.605 82.5348C132.207 82.6941 132.848 82.6139 133.391 82.3113C133.797 82.0609 134.154 81.7396 134.443 81.3632C134.693 81.0462 134.918 80.7111 135.116 80.3607C135.795 79.0604 136.343 77.697 136.75 76.2904C137.534 73.6221 138.175 70.9149 138.671 68.1801C139.686 62.8114 140.402 57.5334 141.026 52.37C142.25 42.0494 143.07 32.1757 143.651 22.7428C143.785 20.3816 143.926 18.0626 143.969 15.7195C143.977 15.574 143.956 15.4284 143.908 15.2907C143.811 15.0296 143.615 14.8154 143.362 14.6928C143.109 14.5702 142.818 14.5486 142.55 14.6325C142.406 14.6747 142.272 14.7458 142.157 14.8414C142.043 14.9371 141.949 15.0551 141.883 15.1881C141.826 15.2929 141.79 15.4078 141.779 15.5262V15.6349L141.736 15.8523L141.589 16.722C141.503 17.2957 141.418 17.8633 141.338 18.437C141.179 19.5724 141.045 20.6956 140.922 21.8189C140.427 26.2998 140.102 30.6841 139.913 34.9597C139.723 39.2353 139.68 43.4142 139.852 47.4845C139.975 51.4762 140.469 55.4483 141.326 59.3511C141.749 61.2853 142.449 63.15 143.406 64.8889C143.914 65.8015 144.596 66.6093 145.413 67.2682C146.278 67.9797 147.349 68.4025 148.472 68.476H148.882H149.286C149.612 68.4608 149.934 68.3956 150.24 68.2828C150.767 68.0487 151.244 67.7189 151.647 67.3105C152.326 66.6259 152.92 65.8636 153.415 65.0398C154.347 63.5227 155.165 61.9402 155.862 60.3053C157.172 57.2321 158.293 54.0841 159.221 50.8784C160.11 47.8825 160.839 44.8427 161.405 41.7716C161.681 40.28 161.895 38.8005 162.017 37.327C162.091 36.5962 162.146 35.8595 162.164 35.1288C162.164 34.7604 162.164 34.392 162.164 34.0236C162.169 33.6362 162.149 33.2489 162.103 32.8641C162.083 32.6903 162.039 32.5197 161.974 32.3569C161.898 32.1731 161.768 32.0156 161.601 31.904C161.185 31.4993 160.378 31.9039 160.378 32.0066C160.29 32.0871 160.215 32.1809 160.157 32.2844C160.13 32.3333 160.105 32.3837 160.084 32.4354C159.999 32.6488 159.934 32.869 159.888 33.0936C159.802 33.468 159.741 33.8183 159.686 34.1686C159.57 34.8691 159.484 35.5515 159.405 36.2339C159.254 37.5866 159.136 38.9152 159.05 40.2196C158.866 42.8365 158.785 45.3588 158.805 47.7865C158.801 50.1414 158.958 52.4939 159.276 54.8279C159.432 55.9586 159.685 57.0739 160.035 58.1614C160.205 58.7253 160.434 59.2698 160.72 59.7859C161.053 60.3818 161.538 60.8814 162.127 61.2353C162.459 61.4178 162.824 61.5332 163.201 61.5747C163.578 61.6161 163.96 61.5829 164.324 61.4768C164.915 61.3027 165.469 61.0222 165.957 60.6495C166.781 60.0194 167.524 59.2935 168.172 58.4875C169.325 57.0586 170.372 55.5489 171.304 53.9704C172.185 52.5029 172.968 51.0958 173.678 49.7431C174.388 48.3904 174.975 47.1041 175.587 45.8963L176.437 44.1268C176.572 43.837 176.7 43.5229 176.829 43.221L177.153 42.3514C177.833 40.3965 178.404 38.4068 178.866 36.3909C179.252 34.694 179.521 33.2929 179.71 32.1636C179.9 31.0343 180.016 30.2251 180.084 29.6756L180.188 28.8663C180.188 28.8663 180.224 28.5584 180.279 27.9303L180.396 26.7225C180.396 26.2394 180.451 25.6778 180.487 25.0316C180.524 24.3854 180.487 23.6487 180.524 22.8274C180.561 22.0061 180.481 21.0881 180.341 20.0857C180.296 19.558 180.218 19.0337 180.108 18.5155L179.949 17.6822C179.921 17.5274 179.884 17.3742 179.839 17.2232C179.782 17.0122 179.697 16.8092 179.588 16.6193C179.563 16.5714 179.532 16.5267 179.496 16.4864C179.451 16.4219 179.397 16.3631 179.337 16.3113C179.282 16.2637 179.223 16.2213 179.16 16.1845C179.084 16.1416 179.004 16.1072 178.921 16.0818C178.699 16.0221 178.463 16.0348 178.248 16.1181C178.169 16.1708 178.097 16.2338 178.034 16.3053C177.993 16.3363 177.954 16.3706 177.918 16.4079L177.814 16.5227L177.765 16.5951L177.679 16.7401L177.636 16.8367C177.559 17.0325 177.5 17.2345 177.459 17.4406C177.386 17.7848 177.343 18.0988 177.306 18.4249C177.233 19.0651 177.184 19.7173 177.141 20.3876C176.878 25.7321 177.012 32.4656 177.471 40.6725C177.93 48.8795 178.793 58.6325 180.42 69.9012C181.24 75.5356 182.256 81.5564 183.595 87.9457C184.935 94.3349 186.599 101.062 188.82 108.098C189.379 109.861 189.979 111.639 190.619 113.43L191.506 115.846L191.084 115.689C189.352 114.988 187.529 114.07 185.669 113.273C183.81 112.476 181.882 111.667 179.9 110.96C175.816 109.491 171.582 108.465 167.273 107.898C162.722 107.304 158.112 107.304 153.562 107.898C148.785 108.568 144.118 109.853 139.68 111.721C135.044 113.657 130.635 116.087 126.533 118.968C118.133 124.85 110.571 132.513 103.694 141.209C100.256 145.57 96.9746 150.183 93.8503 155.051C92.2841 157.466 90.7505 159.948 89.2496 162.497L88.6928 163.451L87.6038 165.329L87.0532 166.289L86.9186 166.525C86.9186 166.579 86.9186 166.603 86.9186 166.64V166.851V167.69C86.9186 167.751 86.9186 167.847 86.9186 167.884C86.9186 167.92 86.9798 167.986 87.041 168.065C87.1778 168.239 87.3537 168.38 87.5549 168.475C87.6675 168.535 87.7895 168.576 87.9158 168.596H88.185C88.3244 168.591 88.4624 168.567 88.5949 168.524C88.8497 168.441 89.0777 168.293 89.2557 168.095L90.8769 166.531L118.335 140.104C137.704 121.48 164.366 95.8326 195.048 66.5315C202.733 59.2122 210.649 51.6514 218.835 44C227.021 36.3486 235.666 28.818 244.629 21.3418L251.358 15.7014C252.49 14.7532 253.622 13.7991 254.742 12.8208C255.305 12.3316 255.861 11.8304 256.412 11.311L256.828 10.9185L256.932 10.8158C256.981 10.7738 257.026 10.7273 257.067 10.6769L257.428 10.2965L257.788 9.90999L258.082 9.50538C258.181 9.3822 258.269 9.25087 258.345 9.11284L258.48 8.7505C258.529 8.64897 258.548 8.53604 258.535 8.4244V8.27342L258.492 8.12849C258.46 8.02149 258.408 7.92121 258.339 7.83258C258.283 7.75603 258.215 7.68876 258.137 7.63329C257.619 7.364 257.022 7.28075 256.449 7.39777C256.1 7.42797 255.684 7.48232 255.372 7.52459L254.803 7.60914L253.677 7.80238C252.184 8.0681 250.71 8.40628 249.242 8.70823C246.299 9.36648 243.374 10.0851 240.444 10.84C228.746 13.8595 217.073 17.356 205.412 21.0459C172.155 31.6443 139.032 44.0423 107.322 57.008C99.4014 60.257 91.5662 63.5361 83.8168 66.8455L71.6786 72.0934L70.7365 72.51L67.9405 73.7178C65.7598 74.6659 63.725 75.9121 61.8959 77.4197C64.2504 77.0856 66.5475 76.4354 68.7236 75.4873L71.5196 74.2795L72.4679 73.8628L84.5876 68.6209C92.3086 65.3237 100.131 62.0505 108.056 58.8016C139.729 45.848 172.815 33.468 206.024 22.8938C217.648 19.21 229.309 15.7255 240.952 12.7181C243.858 11.9693 246.77 11.2506 249.682 10.6045C251.138 10.2784 252.594 9.97038 254.044 9.7107L255.127 9.52349L255.666 9.44499L255.109 9.98246C254.577 10.4716 254.038 10.9608 253.488 11.4439C252.38 12.4041 251.261 13.3522 250.135 14.3003L243.405 19.9347C234.424 27.4291 225.736 34.9838 217.532 42.6594C209.328 50.3349 201.417 57.8897 193.733 65.2089C163.045 94.5161 136.389 120.164 117.019 138.788L90.3508 164.46L90.9075 163.511C92.3963 160.991 93.9156 158.529 95.4655 156.126C98.5673 151.295 101.804 146.735 105.205 142.435C111.996 133.842 119.442 126.311 127.64 120.574C131.623 117.76 135.907 115.384 140.414 113.491C144.704 111.712 149.21 110.494 153.819 109.867C158.202 109.287 162.643 109.276 167.028 109.837C171.203 110.384 175.306 111.378 179.264 112.802C181.197 113.491 183.069 114.258 184.899 115.067C186.728 115.876 188.484 116.746 190.405 117.525L190.778 117.663L191.047 117.754L191.371 117.845C191.793 117.979 192.246 117.992 192.675 117.881C192.865 117.821 193.038 117.721 193.184 117.586C193.329 117.451 193.441 117.285 193.513 117.102C193.639 116.697 193.639 116.263 193.513 115.858C193.341 115.314 193.286 115.188 193.188 114.928L192.925 114.221L192.442 112.893C191.83 111.123 191.218 109.366 190.662 107.621C188.447 100.652 186.795 93.9545 185.455 87.6196C184.115 81.2847 183.112 75.3001 182.298 69.6959C180.683 58.4875 179.851 48.8071 179.368 40.6303C178.917 33.9488 178.807 27.2491 179.037 20.5567C179.074 19.9045 179.123 19.2825 179.19 18.7027C179.221 18.4129 179.264 18.129 179.313 17.8935C179.33 17.8098 179.353 17.7271 179.38 17.6459L179.307 17.6097L179.148 17.5312C179.066 17.4993 178.988 17.4588 178.915 17.4104C178.836 17.35 178.787 17.3259 178.75 17.2896C178.726 17.2705 178.706 17.2481 178.689 17.2232C178.689 17.1507 178.689 17.2232 178.615 17.2957C178.572 17.3474 178.52 17.3922 178.462 17.4285L178.236 17.5735C178.156 17.6228 178.072 17.6652 177.985 17.7003C177.989 17.7142 177.989 17.7286 177.985 17.7425C178.002 17.788 178.016 17.8344 178.028 17.8814C178.063 17.9986 178.091 18.1176 178.114 18.2377L178.254 18.9866C178.357 19.4627 178.428 19.9448 178.468 20.4299C178.597 21.3478 178.591 22.2416 178.64 22.9904C178.689 23.7393 178.64 24.47 178.64 25.092C178.64 25.714 178.572 26.2515 178.548 26.7104L178.438 27.8578C178.383 28.4617 178.346 28.7697 178.346 28.7697L178.242 29.5548C178.181 30.0802 178.065 30.8834 177.881 31.9704C177.698 33.0574 177.435 34.386 177.061 36.0708C176.617 38.0154 176.066 39.9346 175.409 41.82L175.11 42.6292C174.993 42.8949 174.889 43.1485 174.761 43.4324L173.917 45.1776C173.335 46.3854 172.693 47.6476 172.002 48.9701C171.31 50.2926 170.54 51.6816 169.683 53.1008C168.807 54.5781 167.823 55.9909 166.74 57.3281C166.203 58.0106 165.587 58.6288 164.905 59.1699C164.605 59.4025 164.265 59.5804 163.902 59.6953C163.777 59.7374 163.646 59.7532 163.515 59.7417C163.384 59.7303 163.258 59.6918 163.143 59.6289C162.66 59.3753 162.17 58.5056 161.876 57.5998C161.563 56.6144 161.335 55.6042 161.197 54.5803C160.892 52.3323 160.741 50.0666 160.745 47.7985C160.745 45.4232 160.824 42.9513 160.983 40.3827C161.075 39.0964 161.185 37.792 161.338 36.4755C161.411 35.8172 161.497 35.1529 161.601 34.4947C161.656 34.1686 161.711 33.8425 161.779 33.5405C161.809 33.4077 161.864 33.2265 161.87 33.2084L161.448 33.0091C161.345 32.9517 161.245 32.8892 161.148 32.8219C161.075 32.7434 161.112 32.7253 161.081 32.7615C161.013 32.8252 160.932 32.8727 160.842 32.9004C160.699 32.9555 160.552 33.0019 160.402 33.0393L160.255 33.0816V33.148C160.287 33.459 160.301 33.7715 160.298 34.084C160.298 34.4222 160.298 34.7543 160.298 35.0986C160.298 35.787 160.231 36.4815 160.163 37.182C160.029 38.5831 159.821 40.0203 159.552 41.4697C158.994 44.4753 158.279 47.4505 157.41 50.3832C156.505 53.513 155.41 56.5864 154.131 59.5866C153.473 61.1341 152.704 62.6335 151.831 64.0736C151.414 64.7662 150.917 65.4087 150.35 65.9879C150.122 66.2224 149.855 66.4164 149.561 66.5616C149.26 66.6385 148.947 66.661 148.637 66.6281C147.187 66.5737 145.951 65.4686 145.101 63.989C144.209 62.3974 143.556 60.6867 143.161 58.9103C142.342 55.136 141.877 51.2949 141.773 47.4362C141.601 43.4324 141.644 39.3017 141.828 35.0684C142.011 30.8351 142.342 26.487 142.831 22.0544C142.953 20.9492 143.088 19.832 143.241 18.7148C143.321 18.1653 143.4 17.6036 143.486 17.0481L143.626 16.2207L143.663 16.0214V15.9188C144.348 16.0214 142.752 15.6591 142.874 15.6953C142.874 15.6591 142.874 15.7316 142.874 15.6953C142.874 15.6591 142.874 15.6953 142.874 15.6953C143.015 15.6953 141.351 15.6953 142.054 15.7436C142.011 18.0022 141.877 20.3393 141.742 22.6824C141.13 32.073 140.341 41.9226 139.124 52.201C138.512 57.3341 137.79 62.582 136.793 67.9023C136.308 70.5696 135.683 73.2101 134.921 75.8134C134.553 77.0901 134.059 78.3281 133.446 79.5092C133.206 79.9816 132.861 80.3945 132.437 80.717C132.355 80.7687 132.257 80.7881 132.161 80.7714C131.978 80.6905 131.815 80.5709 131.684 80.4211C131.27 79.9526 130.922 79.4304 130.65 78.8691C130.332 78.2652 129.971 77.6613 129.677 76.997C129.066 75.7349 128.454 74.4425 127.977 73.1139C126.951 70.4222 126.163 67.648 125.621 64.8224C124.508 59.0975 124.196 53.0826 124.086 46.941C124.018 43.1123 124.037 39.0481 124.171 34.7362C124.232 32.5864 124.324 30.3701 124.44 28.0934L124.483 27.2419V27.1392C124 27.6948 123.994 27.1392 123.81 27.1694C123.669 27.0667 123.639 26.9882 123.651 27.0003C123.585 27.0853 123.499 27.1536 123.4 27.1996C123.232 27.2852 123.058 27.3598 122.88 27.423V27.4593L122.917 27.6042C123.003 28.0692 123.052 28.655 123.094 29.2166C123.174 30.358 123.223 31.5295 123.26 32.7132C123.406 37.4719 123.419 42.4601 123.474 47.6657C123.529 52.8713 123.633 58.2581 123.559 63.82C123.517 66.5979 123.437 69.4241 123.205 72.2745C123.076 73.6876 122.935 75.1128 122.666 76.5018C122.38 77.9087 121.998 79.2948 121.522 80.6506C120.595 83.4694 119.458 86.2165 118.12 88.8696C117.447 90.1978 116.67 91.4718 115.796 92.6802C115.016 93.8491 113.968 94.8196 112.737 95.5125C112.212 95.7706 111.614 95.8431 111.042 95.7178C110.436 95.5326 109.887 95.2004 109.445 94.7516C108.422 93.6596 107.594 92.4037 106.998 91.0376C106.336 89.6095 105.768 88.1411 105.297 86.6413C104.808 85.1194 104.379 83.5734 104.025 82.0033C103.275 78.863 102.956 75.6375 103.076 72.4134C103.145 70.8167 103.422 69.2354 103.902 67.7091C104.135 66.9745 104.457 66.2708 104.863 65.6135C105.213 65.0117 105.709 64.5052 106.307 64.14C106.547 63.99 106.822 63.903 107.105 63.8871C107.389 63.8713 107.672 63.9272 107.928 64.0494C108.536 64.3739 109.046 64.8536 109.402 65.4384C110.228 66.8215 110.79 68.3423 111.06 69.9254C111.628 73.2873 111.752 76.7078 111.427 80.101C110.858 86.9915 109.341 93.9907 105.811 100.163C105.603 100.549 105.371 100.923 105.126 101.292C104.881 101.66 104.661 102.041 104.41 102.409C103.89 103.122 103.388 103.852 102.807 104.523C102.226 105.193 101.645 105.857 101.045 106.516C100.446 107.174 99.7787 107.766 99.0934 108.327C96.3616 110.648 93.2692 112.52 89.9348 113.871C86.5137 115.241 82.9528 116.244 79.3139 116.86C78.4023 117.023 77.4785 117.174 76.5486 117.319L75.1537 117.519L74.4562 117.621L73.7098 117.748C71.6701 118.097 69.7542 118.954 68.1424 120.236C66.4273 121.58 65.3084 123.528 65.0222 125.671C64.9139 126.788 65.1082 127.914 65.5851 128.932C66.0849 129.922 66.8221 130.776 67.7325 131.42C68.6041 132.028 69.5716 132.489 70.5958 132.785C71.0913 132.937 71.596 133.058 72.1069 133.147C72.6405 133.236 73.1811 133.276 73.7221 133.268C75.8324 133.166 77.8724 132.487 79.6137 131.306C81.2924 130.208 82.8167 128.896 84.1471 127.404C85.4695 125.947 86.6782 124.392 87.7629 122.754C89.9106 119.471 91.7067 115.975 93.1223 112.325C94.5925 108.692 95.6393 104.905 96.2424 101.038C96.543 99.0743 96.6414 97.0854 96.5361 95.1019C96.469 93.0269 95.9229 90.9945 94.9393 89.1595C94.6654 88.6858 94.3436 88.2406 93.9788 87.8309C93.7891 87.6317 93.5872 87.4263 93.367 87.227L92.7919 86.7258C92.0004 86.071 91.1529 85.4851 90.259 84.9745C89.3545 84.4711 88.404 84.0526 87.4203 83.7244C86.4249 83.4054 85.4004 83.183 84.3613 83.0601C82.3178 82.8297 80.2497 82.9399 78.2433 83.3862C76.2662 83.8269 74.3498 84.5001 72.5352 85.3912C68.9629 87.1788 65.7399 89.5771 63.0155 92.4749C61.6074 93.9258 60.3942 95.5496 59.4059 97.3061C58.879 98.2296 58.4993 99.2276 58.2802 100.265C58.1563 100.863 58.1563 101.479 58.2802 102.077C58.4312 102.743 58.8064 103.339 59.3447 103.768C59.8643 104.139 60.4665 104.381 61.1006 104.474C61.6661 104.572 62.2422 104.594 62.8136 104.541C63.9006 104.407 64.9515 104.069 65.9094 103.544C67.6822 102.545 69.2759 101.263 70.6263 99.7519C73.2481 96.8393 75.3966 93.5432 76.9952 89.9808C78.6339 86.4569 79.7329 82.712 80.2561 78.8691C80.8414 74.9866 80.442 71.0214 79.0937 67.3286C78.7322 66.4077 78.2922 65.5188 77.7783 64.6714C77.2571 63.8292 76.6657 63.0313 76.0102 62.2861C74.6862 60.8091 73.1258 59.5565 71.3911 58.5781C67.9672 56.7735 64.2045 55.6821 60.3359 55.3714C56.5356 55.0206 52.7025 55.3437 49.0175 56.3256C45.3996 57.2973 41.9407 58.7736 38.7454 60.7099C35.6075 62.6134 32.683 64.8402 30.0211 67.3528C27.3987 69.7987 24.9861 72.4549 22.808 75.294C20.6576 78.0801 18.7248 81.0235 17.0265 84.0988C15.3346 87.1309 13.9355 90.3134 12.8479 93.6042C12.5787 94.4255 12.3462 95.2589 12.1382 96.0923L11.9363 96.986V97.0947L11.8935 97.3121C11.7118 98.1934 11.5851 99.0848 11.5141 99.9814C11.3797 101.29 11.5385 102.611 11.9791 103.852C12.1855 104.396 12.4788 104.904 12.8479 105.356C13.2425 105.828 13.7432 106.202 14.3101 106.449Z" fill="white"/>
<path d="M14.3101 106.449C13.6807 105.596 13.3364 104.57 13.3251 103.514C13.2674 102.379 13.2919 101.24 13.3985 100.108C13.473 99.283 13.5935 98.4624 13.7594 97.6503L13.8023 97.451V97.3484L13.9981 96.515C14.1938 95.7239 14.4141 94.9388 14.6649 94.1537C15.7145 90.9819 17.0644 87.9146 18.6967 84.9926C20.3506 82.0031 22.2301 79.1406 24.3191 76.4293C26.4407 73.6738 28.7899 71.0964 31.3426 68.7236C33.9122 66.309 36.7365 64.1731 39.7671 62.3525C42.8117 60.5077 46.108 59.1024 49.5559 58.1795C53.0231 57.2521 56.631 56.9473 60.2074 57.2797C63.8045 57.5652 67.3045 58.5743 70.4917 60.2449C72.0384 61.1109 73.4312 62.2206 74.6153 63.5301C75.7914 64.8477 76.7178 66.3635 77.35 68.005C78.581 71.4044 78.9404 75.0517 78.3962 78.6215C77.8951 82.2758 76.8499 85.837 75.2944 89.1897C73.7791 92.5784 71.7422 95.7154 69.2559 98.4897C68.0521 99.8434 66.6324 100.994 65.0528 101.896C64.3155 102.299 63.5084 102.563 62.6729 102.675C61.9538 102.779 61.2202 102.638 60.5928 102.276C60.3831 102.111 60.2399 101.878 60.189 101.618C60.1217 101.269 60.1217 100.91 60.189 100.561C60.3732 99.7149 60.6846 98.9007 61.1128 98.1455C62.0263 96.5466 63.1427 95.0692 64.4349 93.7491C67.0246 91.024 70.0843 88.7748 73.4712 87.1063C76.83 85.4818 80.5803 84.5095 84.2206 84.9564C86.0339 85.1713 87.7854 85.7421 89.3719 86.6352C90.1648 87.0892 90.916 87.6105 91.6172 88.1933L92.1373 88.6402C92.3025 88.7911 92.437 88.93 92.5839 89.081C92.8613 89.3949 93.1072 89.7347 93.318 90.0956C94.1476 91.6801 94.6075 93.4278 94.664 95.2106C94.759 97.0651 94.6647 98.9245 94.3826 100.76C93.7977 104.484 92.7879 108.131 91.3725 111.631C89.9966 115.138 88.2559 118.496 86.1783 121.649C85.1511 123.208 84.0036 124.686 82.7461 126.07C81.5292 127.438 80.1345 128.643 78.5981 129.651C77.1536 130.641 75.4594 131.215 73.7037 131.312C73.2937 131.317 72.8841 131.284 72.4801 131.215C72.0476 131.139 71.6205 131.037 71.2014 130.907C70.3809 130.676 69.6055 130.31 68.9072 129.826C68.2537 129.368 67.7243 128.758 67.3654 128.051C67.0389 127.348 66.906 126.573 66.98 125.804C67.2226 124.164 68.0998 122.682 69.4272 121.667C70.7892 120.59 72.4058 119.871 74.1258 119.578L74.7805 119.469L75.484 119.366L76.8973 119.161C77.8395 119.022 78.7816 118.865 79.7177 118.696C83.4915 118.055 87.1838 117.012 90.7301 115.586C94.2784 114.157 97.5679 112.169 100.47 109.698C101.198 109.094 101.865 108.418 102.544 107.766C103.223 107.113 103.841 106.389 104.422 105.646C105.003 104.903 105.566 104.16 106.117 103.405C106.38 103.019 106.625 102.62 106.876 102.228C107.126 101.835 107.377 101.443 107.597 101.02C109.414 97.8085 110.794 94.3751 111.703 90.8082C112.597 87.3177 113.184 83.7576 113.459 80.1675C113.794 76.6045 113.66 73.0136 113.061 69.4845C112.746 67.6572 112.088 65.9041 111.121 64.3152C110.571 63.4297 109.781 62.7142 108.839 62.2498C108.308 61.9998 107.721 61.8856 107.132 61.9177C106.554 61.9518 105.99 62.1171 105.487 62.4008C104.608 62.9237 103.874 63.6542 103.352 64.5265C102.863 65.314 102.475 66.1578 102.195 67.0387C101.66 68.7228 101.352 70.4689 101.278 72.2323C101.109 75.6404 101.41 79.0553 102.171 82.3838C102.538 83.9942 102.976 85.5925 103.486 87.1787C103.984 88.7566 104.583 90.3017 105.279 91.8046C105.965 93.3759 106.921 94.8184 108.105 96.0681C108.781 96.7514 109.624 97.2506 110.552 97.5175C111.545 97.7505 112.589 97.6374 113.507 97.1974C114.321 96.812 115.061 96.2887 115.692 95.6514C116.287 95.0685 116.834 94.4383 117.325 93.7673C118.259 92.4743 119.09 91.1114 119.809 89.6909C121.196 86.9518 122.372 84.1135 123.327 81.2001C123.834 79.7676 124.243 78.3028 124.55 76.8158C124.816 75.3548 125.006 73.8814 125.119 72.4013C125.352 69.4845 125.438 66.6341 125.474 63.826C125.554 58.2218 125.474 52.8169 125.395 47.6234C125.315 42.4299 125.327 37.4296 125.175 32.6407C125.138 31.4329 125.089 30.2251 125.009 29.0656C124.971 28.4484 124.899 27.8336 124.795 27.2237C124.778 27.13 124.755 27.0373 124.728 26.9459C124.691 26.7988 124.635 26.6567 124.563 26.5232C124.471 26.4326 124.483 26.2032 123.841 25.9918C123.649 25.9533 123.45 25.9704 123.267 26.0411C123.085 26.1119 122.927 26.2331 122.813 26.3904C122.672 26.6742 122.758 26.2394 122.562 26.9943V27.103L122.519 27.9605C122.403 30.2432 122.317 32.4656 122.25 34.6336C122.116 38.9635 122.097 43.0881 122.164 46.9229C122.275 53.1128 122.587 59.2183 123.737 65.1304C124.299 68.0633 125.118 70.9425 126.184 73.736C126.71 75.1189 127.31 76.4656 127.958 77.7821C128.264 78.4464 128.631 79.0744 128.968 79.7206C129.322 80.4402 129.777 81.107 130.32 81.7014C130.674 82.0774 131.114 82.3633 131.605 82.5348C132.207 82.6941 132.848 82.6139 133.391 82.3113C133.797 82.0609 134.154 81.7396 134.443 81.3632C134.693 81.0462 134.918 80.7111 135.116 80.3607C135.795 79.0604 136.343 77.697 136.75 76.2904C137.534 73.6221 138.175 70.9149 138.671 68.1801C139.686 62.8114 140.402 57.5334 141.026 52.37C142.25 42.0494 143.07 32.1757 143.651 22.7428C143.785 20.3816 143.926 18.0626 143.969 15.7195C143.977 15.574 143.956 15.4284 143.908 15.2907C143.811 15.0296 143.615 14.8154 143.362 14.6928C143.109 14.5702 142.818 14.5486 142.55 14.6325C142.406 14.6747 142.272 14.7458 142.157 14.8414C142.043 14.9371 141.949 15.0551 141.883 15.1881C141.826 15.2929 141.79 15.4078 141.779 15.5262V15.6349L141.736 15.8523L141.589 16.722C141.503 17.2957 141.418 17.8633 141.338 18.437C141.179 19.5724 141.045 20.6956 140.922 21.8189C140.427 26.2998 140.102 30.6841 139.913 34.9597C139.723 39.2353 139.68 43.4142 139.852 47.4845C139.975 51.4762 140.469 55.4483 141.326 59.3511C141.749 61.2853 142.449 63.15 143.406 64.8889C143.914 65.8015 144.596 66.6093 145.413 67.2682C146.278 67.9797 147.349 68.4025 148.472 68.476H148.882H149.286C149.612 68.4608 149.934 68.3956 150.24 68.2828C150.767 68.0487 151.244 67.7189 151.647 67.3105C152.326 66.6259 152.92 65.8636 153.415 65.0398C154.347 63.5227 155.165 61.9402 155.862 60.3053C157.172 57.2321 158.293 54.0841 159.221 50.8784C160.11 47.8825 160.839 44.8427 161.405 41.7716C161.681 40.28 161.895 38.8005 162.017 37.327C162.091 36.5962 162.146 35.8595 162.164 35.1288C162.164 34.7604 162.164 34.392 162.164 34.0236C162.169 33.6362 162.149 33.2489 162.103 32.8641C162.083 32.6903 162.039 32.5197 161.974 32.3569C161.898 32.1731 161.768 32.0156 161.601 31.904C161.185 31.4993 160.378 31.9039 160.378 32.0066C160.29 32.0871 160.215 32.1809 160.157 32.2844C160.13 32.3333 160.105 32.3837 160.084 32.4354C159.999 32.6488 159.934 32.869 159.888 33.0936C159.802 33.468 159.741 33.8183 159.686 34.1686C159.57 34.8691 159.484 35.5515 159.405 36.2339C159.254 37.5866 159.136 38.9152 159.05 40.2196C158.866 42.8365 158.785 45.3588 158.805 47.7865C158.801 50.1414 158.958 52.4939 159.276 54.8279C159.432 55.9586 159.685 57.0739 160.035 58.1614C160.205 58.7253 160.434 59.2698 160.72 59.7859C161.053 60.3818 161.538 60.8814 162.127 61.2353C162.459 61.4178 162.824 61.5332 163.201 61.5747C163.578 61.6161 163.96 61.5829 164.324 61.4768C164.915 61.3027 165.469 61.0222 165.957 60.6495C166.781 60.0194 167.524 59.2935 168.172 58.4875C169.325 57.0586 170.372 55.5489 171.304 53.9704C172.185 52.5029 172.968 51.0958 173.678 49.7431C174.388 48.3904 174.975 47.1041 175.587 45.8963L176.437 44.1268C176.572 43.837 176.7 43.5229 176.829 43.221L177.153 42.3514C177.833 40.3965 178.404 38.4068 178.866 36.3909C179.252 34.694 179.521 33.2929 179.71 32.1636C179.9 31.0343 180.016 30.2251 180.084 29.6756L180.188 28.8663C180.188 28.8663 180.224 28.5584 180.279 27.9303L180.396 26.7225C180.396 26.2394 180.451 25.6778 180.487 25.0316C180.524 24.3854 180.487 23.6487 180.524 22.8274C180.561 22.0061 180.481 21.0881 180.341 20.0857C180.296 19.558 180.218 19.0337 180.108 18.5155L179.949 17.6822C179.921 17.5274 179.884 17.3742 179.839 17.2232C179.782 17.0122 179.697 16.8092 179.588 16.6193C179.563 16.5714 179.532 16.5267 179.496 16.4864C179.451 16.4219 179.397 16.3631 179.337 16.3113C179.282 16.2637 179.223 16.2213 179.16 16.1845C179.084 16.1416 179.004 16.1072 178.921 16.0818C178.699 16.0221 178.463 16.0348 178.248 16.1181C178.169 16.1708 178.097 16.2338 178.034 16.3053C177.993 16.3363 177.954 16.3706 177.918 16.4079L177.814 16.5227L177.765 16.5951L177.679 16.7401L177.636 16.8367C177.559 17.0325 177.5 17.2345 177.459 17.4406C177.386 17.7848 177.343 18.0988 177.306 18.4249C177.233 19.0651 177.184 19.7173 177.141 20.3876C176.878 25.7321 177.012 32.4656 177.471 40.6725C177.93 48.8795 178.793 58.6325 180.42 69.9012C181.24 75.5356 182.256 81.5564 183.595 87.9457C184.935 94.3349 186.599 101.062 188.82 108.098C189.379 109.861 189.979 111.639 190.619 113.43L191.506 115.846L191.084 115.689C189.352 114.988 187.529 114.07 185.669 113.273C183.81 112.476 181.882 111.667 179.9 110.96C175.816 109.491 171.582 108.465 167.273 107.898C162.722 107.304 158.112 107.304 153.562 107.898C148.785 108.568 144.118 109.853 139.68 111.721C135.044 113.657 130.635 116.087 126.533 118.968C118.133 124.85 110.571 132.513 103.694 141.209C100.256 145.57 96.9746 150.183 93.8503 155.051C92.2841 157.466 90.7505 159.948 89.2496 162.497L88.6928 163.451L87.6038 165.329L87.0532 166.289L86.9186 166.525C86.9186 166.579 86.9186 166.603 86.9186 166.64V166.851V167.69C86.9186 167.751 86.9186 167.847 86.9186 167.884C86.9186 167.92 86.9798 167.986 87.041 168.065C87.1778 168.239 87.3537 168.38 87.5549 168.475C87.6675 168.535 87.7895 168.576 87.9158 168.596H88.185C88.3244 168.591 88.4624 168.567 88.5949 168.524C88.8497 168.441 89.0777 168.293 89.2557 168.095L90.8769 166.531L118.335 140.104C137.704 121.48 164.366 95.8326 195.048 66.5315C202.733 59.2122 210.649 51.6514 218.835 44C227.021 36.3486 235.666 28.818 244.629 21.3418L251.358 15.7014C252.49 14.7532 253.622 13.7991 254.742 12.8208C255.305 12.3316 255.861 11.8304 256.412 11.311L256.828 10.9185L256.932 10.8158C256.981 10.7738 257.026 10.7273 257.067 10.6769L257.428 10.2965L257.788 9.90999L258.082 9.50538C258.181 9.3822 258.269 9.25087 258.345 9.11284L258.48 8.7505C258.529 8.64897 258.548 8.53604 258.535 8.4244V8.27342L258.492 8.12849C258.46 8.02149 258.408 7.92121 258.339 7.83258C258.283 7.75603 258.215 7.68876 258.137 7.63329C257.619 7.364 257.022 7.28075 256.449 7.39777C256.1 7.42797 255.684 7.48232 255.372 7.52459L254.803 7.60914L253.677 7.80238C252.184 8.0681 250.71 8.40628 249.242 8.70823C246.299 9.36648 243.374 10.0851 240.444 10.84C228.746 13.8595 217.073 17.356 205.412 21.0459C172.155 31.6443 139.032 44.0423 107.322 57.008C99.4014 60.257 91.5662 63.5361 83.8168 66.8455L71.6786 72.0934L70.7365 72.51L67.9405 73.7178C65.7598 74.6659 63.725 75.9121 61.8959 77.4197C64.2504 77.0856 66.5475 76.4354 68.7236 75.4873L71.5196 74.2795L72.4679 73.8628L84.5876 68.6209C92.3086 65.3237 100.131 62.0505 108.056 58.8016C139.729 45.848 172.815 33.468 206.024 22.8938C217.648 19.21 229.309 15.7255 240.952 12.7181C243.858 11.9693 246.77 11.2506 249.682 10.6045C251.138 10.2784 252.594 9.97038 254.044 9.7107L255.127 9.52349L255.666 9.44499L255.109 9.98246C254.577 10.4716 254.038 10.9608 253.488 11.4439C252.38 12.4041 251.261 13.3522 250.135 14.3003L243.405 19.9347C234.424 27.4291 225.736 34.9838 217.532 42.6594C209.328 50.3349 201.417 57.8897 193.733 65.2089C163.045 94.5161 136.389 120.164 117.019 138.788L90.3508 164.46L90.9075 163.511C92.3963 160.991 93.9156 158.529 95.4655 156.126C98.5673 151.295 101.804 146.735 105.205 142.435C111.996 133.842 119.442 126.311 127.64 120.574C131.623 117.76 135.907 115.384 140.414 113.491C144.704 111.712 149.21 110.494 153.819 109.867C158.202 109.287 162.643 109.276 167.028 109.837C171.203 110.384 175.306 111.378 179.264 112.802C181.197 113.491 183.069 114.258 184.899 115.067C186.728 115.876 188.484 116.746 190.405 117.525L190.778 117.663L191.047 117.754L191.371 117.845C191.793 117.979 192.246 117.992 192.675 117.881C192.865 117.821 193.038 117.721 193.184 117.586C193.329 117.451 193.441 117.285 193.513 117.102C193.639 116.697 193.639 116.263 193.513 115.858C193.341 115.314 193.286 115.188 193.188 114.928L192.925 114.221L192.442 112.893C191.83 111.123 191.218 109.366 190.662 107.621C188.447 100.652 186.795 93.9545 185.455 87.6196C184.115 81.2847 183.112 75.3001 182.298 69.6959C180.683 58.4875 179.851 48.8071 179.368 40.6303C178.917 33.9488 178.807 27.2491 179.037 20.5567C179.074 19.9045 179.123 19.2825 179.19 18.7027C179.221 18.4129 179.264 18.129 179.313 17.8935C179.33 17.8098 179.353 17.7271 179.38 17.6459L179.307 17.6097L179.148 17.5312C179.066 17.4993 178.988 17.4588 178.915 17.4104C178.836 17.35 178.787 17.3259 178.75 17.2896C178.726 17.2705 178.706 17.2481 178.689 17.2232C178.689 17.1507 178.689 17.2232 178.615 17.2957C178.572 17.3474 178.52 17.3922 178.462 17.4285L178.236 17.5735C178.156 17.6228 178.072 17.6652 177.985 17.7003C177.989 17.7142 177.989 17.7286 177.985 17.7425C178.002 17.788 178.016 17.8344 178.028 17.8814C178.063 17.9986 178.091 18.1176 178.114 18.2377L178.254 18.9866C178.357 19.4627 178.428 19.9448 178.468 20.4299C178.597 21.3478 178.591 22.2416 178.64 22.9904C178.689 23.7393 178.64 24.47 178.64 25.092C178.64 25.714 178.572 26.2515 178.548 26.7104L178.438 27.8578C178.383 28.4617 178.346 28.7697 178.346 28.7697L178.242 29.5548C178.181 30.0802 178.065 30.8834 177.881 31.9704C177.698 33.0574 177.435 34.386 177.061 36.0708C176.617 38.0154 176.066 39.9346 175.409 41.82L175.11 42.6292C174.993 42.8949 174.889 43.1485 174.761 43.4324L173.917 45.1776C173.335 46.3854 172.693 47.6476 172.002 48.9701C171.31 50.2926 170.54 51.6816 169.683 53.1008C168.807 54.5781 167.823 55.9909 166.74 57.3281C166.203 58.0106 165.587 58.6288 164.905 59.1699C164.605 59.4025 164.265 59.5804 163.902 59.6953C163.777 59.7374 163.646 59.7532 163.515 59.7417C163.384 59.7303 163.258 59.6918 163.143 59.6289C162.66 59.3753 162.17 58.5056 161.876 57.5998C161.563 56.6144 161.335 55.6042 161.197 54.5803C160.892 52.3323 160.741 50.0666 160.745 47.7985C160.745 45.4232 160.824 42.9513 160.983 40.3827C161.075 39.0964 161.185 37.792 161.338 36.4755C161.411 35.8172 161.497 35.1529 161.601 34.4947C161.656 34.1686 161.711 33.8425 161.779 33.5405C161.809 33.4077 161.864 33.2265 161.87 33.2084L161.448 33.0091C161.345 32.9517 161.245 32.8892 161.148 32.8219C161.075 32.7434 161.112 32.7253 161.081 32.7615C161.013 32.8252 160.932 32.8727 160.842 32.9004C160.699 32.9555 160.552 33.0019 160.402 33.0393L160.255 33.0816V33.148C160.287 33.459 160.301 33.7715 160.298 34.084C160.298 34.4222 160.298 34.7543 160.298 35.0986C160.298 35.787 160.231 36.4815 160.163 37.182C160.029 38.5831 159.821 40.0203 159.552 41.4697C158.994 44.4753 158.279 47.4505 157.41 50.3832C156.505 53.513 155.41 56.5864 154.131 59.5866C153.473 61.1341 152.704 62.6335 151.831 64.0736C151.414 64.7662 150.917 65.4087 150.35 65.9879C150.122 66.2224 149.855 66.4164 149.561 66.5616C149.26 66.6385 148.947 66.661 148.637 66.6281C147.187 66.5737 145.951 65.4686 145.101 63.989C144.209 62.3974 143.556 60.6867 143.161 58.9103C142.342 55.136 141.877 51.2949 141.773 47.4362C141.601 43.4324 141.644 39.3017 141.828 35.0684C142.011 30.8351 142.342 26.487 142.831 22.0544C142.953 20.9492 143.088 19.832 143.241 18.7148C143.321 18.1653 143.4 17.6036 143.486 17.0481L143.626 16.2207L143.663 16.0214V15.9188C144.348 16.0214 142.752 15.6591 142.874 15.6953C142.874 15.6591 142.874 15.7316 142.874 15.6953C142.874 15.6591 142.874 15.6953 142.874 15.6953C143.015 15.6953 141.351 15.6953 142.054 15.7436C142.011 18.0022 141.877 20.3393 141.742 22.6824C141.13 32.073 140.341 41.9226 139.124 52.201C138.512 57.3341 137.79 62.582 136.793 67.9023C136.308 70.5696 135.683 73.2101 134.921 75.8134C134.553 77.0901 134.059 78.3281 133.446 79.5092C133.206 79.9816 132.861 80.3945 132.437 80.717C132.355 80.7687 132.257 80.7881 132.161 80.7714C131.978 80.6905 131.815 80.5709 131.684 80.4211C131.27 79.9526 130.922 79.4304 130.65 78.8691C130.332 78.2652 129.971 77.6613 129.677 76.997C129.066 75.7349 128.454 74.4425 127.977 73.1139C126.951 70.4222 126.163 67.648 125.621 64.8224C124.508 59.0975 124.196 53.0826 124.086 46.941C124.018 43.1123 124.037 39.0481 124.171 34.7362C124.232 32.5864 124.324 30.3701 124.44 28.0934L124.483 27.2419V27.1392C124 27.6948 123.994 27.1392 123.81 27.1694C123.669 27.0667 123.639 26.9882 123.651 27.0003C123.585 27.0853 123.499 27.1536 123.4 27.1996C123.232 27.2852 123.058 27.3598 122.88 27.423V27.4593L122.917 27.6042C123.003 28.0692 123.052 28.655 123.094 29.2166C123.174 30.358 123.223 31.5295 123.26 32.7132C123.406 37.4719 123.419 42.4601 123.474 47.6657C123.529 52.8713 123.633 58.2581 123.559 63.82C123.517 66.5979 123.437 69.4241 123.205 72.2745C123.076 73.6876 122.935 75.1128 122.666 76.5018C122.38 77.9087 121.998 79.2948 121.522 80.6506C120.595 83.4694 119.458 86.2165 118.12 88.8696C117.447 90.1978 116.67 91.4718 115.796 92.6802C115.016 93.8491 113.968 94.8196 112.737 95.5125C112.212 95.7706 111.614 95.8431 111.042 95.7178C110.436 95.5326 109.887 95.2004 109.445 94.7516C108.422 93.6596 107.594 92.4037 106.998 91.0376C106.336 89.6095 105.768 88.1411 105.297 86.6413C104.808 85.1194 104.379 83.5734 104.025 82.0033C103.275 78.863 102.956 75.6375 103.076 72.4134C103.145 70.8167 103.422 69.2354 103.902 67.7091C104.135 66.9745 104.457 66.2708 104.863 65.6135C105.213 65.0117 105.709 64.5052 106.307 64.14C106.547 63.99 106.822 63.903 107.105 63.8871C107.389 63.8713 107.672 63.9272 107.928 64.0494C108.536 64.3739 109.046 64.8536 109.402 65.4384C110.228 66.8215 110.79 68.3423 111.06 69.9254C111.628 73.2873 111.752 76.7078 111.427 80.101C110.858 86.9915 109.341 93.9907 105.811 100.163C105.603 100.549 105.371 100.923 105.126 101.292C104.881 101.66 104.661 102.041 104.41 102.409C103.89 103.122 103.388 103.852 102.807 104.523C102.226 105.193 101.645 105.857 101.045 106.516C100.446 107.174 99.7787 107.766 99.0934 108.327C96.3616 110.648 93.2692 112.52 89.9348 113.871C86.5137 115.241 82.9528 116.244 79.3139 116.86C78.4023 117.023 77.4785 117.174 76.5486 117.319L75.1537 117.519L74.4562 117.621L73.7098 117.748C71.6701 118.097 69.7542 118.954 68.1424 120.236C66.4273 121.58 65.3084 123.528 65.0222 125.671C64.9139 126.788 65.1082 127.914 65.5851 128.932C66.0849 129.922 66.8221 130.776 67.7325 131.42C68.6041 132.028 69.5716 132.489 70.5958 132.785C71.0913 132.937 71.596 133.058 72.1069 133.147C72.6405 133.236 73.1811 133.276 73.7221 133.268C75.8324 133.166 77.8724 132.487 79.6137 131.306C81.2924 130.208 82.8167 128.896 84.1471 127.404C85.4695 125.947 86.6782 124.392 87.7629 122.754C89.9106 119.471 91.7067 115.975 93.1223 112.325C94.5925 108.692 95.6393 104.905 96.2424 101.038C96.543 99.0743 96.6414 97.0854 96.5361 95.1019C96.469 93.0269 95.9229 90.9945 94.9393 89.1595C94.6654 88.6858 94.3436 88.2406 93.9788 87.8309C93.7891 87.6317 93.5872 87.4263 93.367 87.227L92.7919 86.7258C92.0004 86.071 91.1529 85.4851 90.259 84.9745C89.3545 84.4711 88.404 84.0526 87.4203 83.7244C86.4249 83.4054 85.4004 83.183 84.3613 83.0601C82.3178 82.8297 80.2497 82.9399 78.2433 83.3862C76.2662 83.8269 74.3498 84.5001 72.5352 85.3912C68.9629 87.1788 65.7399 89.5771 63.0155 92.4749C61.6074 93.9258 60.3942 95.5496 59.4059 97.3061C58.879 98.2296 58.4993 99.2276 58.2802 100.265C58.1563 100.863 58.1563 101.479 58.2802 102.077C58.4312 102.743 58.8064 103.339 59.3447 103.768C59.8643 104.139 60.4665 104.381 61.1006 104.474C61.6661 104.572 62.2422 104.594 62.8136 104.541C63.9006 104.407 64.9515 104.069 65.9094 103.544C67.6822 102.545 69.2759 101.263 70.6263 99.7519C73.2481 96.8393 75.3966 93.5432 76.9952 89.9808C78.6339 86.4569 79.7329 82.712 80.2561 78.8691C80.8414 74.9866 80.442 71.0214 79.0937 67.3286C78.7322 66.4077 78.2922 65.5188 77.7783 64.6714C77.2571 63.8292 76.6657 63.0313 76.0102 62.2861C74.6862 60.8091 73.1258 59.5565 71.3911 58.5781C67.9672 56.7735 64.2045 55.6821 60.3359 55.3714C56.5356 55.0206 52.7025 55.3437 49.0175 56.3256C45.3996 57.2973 41.9407 58.7736 38.7454 60.7099C35.6075 62.6134 32.683 64.8402 30.0211 67.3528C27.3987 69.7987 24.9861 72.4549 22.808 75.294C20.6576 78.0801 18.7248 81.0235 17.0265 84.0988C15.3346 87.1309 13.9355 90.3134 12.8479 93.6042C12.5787 94.4255 12.3462 95.2589 12.1382 96.0923L11.9363 96.986V97.0947L11.8935 97.3121C11.7118 98.1934 11.5851 99.0848 11.5141 99.9814C11.3797 101.29 11.5385 102.611 11.9791 103.852C12.1855 104.396 12.4788 104.904 12.8479 105.356C13.2425 105.828 13.7432 106.202 14.3101 106.449Z" stroke="black" stroke-width="1.2" mask="url(#path-1-outside-1_228_255)"/>
<path d="M49.5743 126.885L49.2743 126.881L49.2743 126.882L49.2743 126.882L49.2743 126.886L49.2741 126.899L49.2734 126.952L49.271 127.153C49.269 127.326 49.2662 127.572 49.2631 127.867C49.2569 128.456 49.2494 129.24 49.2445 130.016C49.2395 130.791 49.237 131.56 49.2407 132.12C49.2426 132.399 49.246 132.629 49.2517 132.783C49.2544 132.857 49.2579 132.923 49.2632 132.969C49.2646 132.981 49.2666 132.996 49.2696 133.011L49.2698 133.012C49.2707 133.016 49.2728 133.028 49.277 133.042C49.2995 133.655 49.3436 134.232 49.4114 134.688C49.4465 134.924 49.4891 135.135 49.5413 135.305C49.5674 135.391 49.5978 135.472 49.6343 135.544C49.6692 135.612 49.719 135.69 49.7924 135.751C49.8587 135.807 49.9603 135.862 50.0897 135.854C50.2171 135.847 50.3116 135.781 50.3728 135.719C50.484 135.607 50.564 135.43 50.6317 135.24C50.774 134.839 50.9304 134.167 51.1226 133.164C51.3747 131.974 51.6261 130.529 51.8143 129.382C51.9086 128.808 51.9871 128.308 52.0421 127.952C52.0696 127.774 52.0912 127.631 52.106 127.533L52.1228 127.421L52.1271 127.392L52.1282 127.384L52.1285 127.382L52.1286 127.382L52.1286 127.382L51.8318 127.338L52.1286 127.382L52.1301 127.372L52.1309 127.362L53.9662 104.415L53.9663 104.414L56.2359 77.1071L56.236 77.1064L56.5541 73.381L56.5579 73.3357L56.5482 73.2913C56.5254 73.1875 56.4823 73.0893 56.4214 73.0023L56.4214 73.0022L56.4194 72.9995C55.924 72.3089 55.3798 72.0685 54.8573 72.156C54.3877 72.2347 54.0292 72.5665 53.8259 72.8244C53.7854 72.8635 53.752 72.9096 53.7272 72.9606C53.6984 73.0201 53.6822 73.0848 53.6796 73.1509L53.344 76.9038L53.344 76.9038L53.3438 76.9057L51.1107 103.761L51.1106 103.762L49.2752 126.861L49.2744 126.871L49.2743 126.881L49.5743 126.885ZM49.5586 132.907C49.5544 132.856 49.551 132.775 49.5483 132.668C49.4854 132.673 49.4354 132.696 49.4012 132.72C49.3388 132.763 49.3113 132.817 49.3052 132.829L49.305 132.829C49.2952 132.848 49.29 132.864 49.288 132.87L49.5586 132.907Z" fill="white" stroke="black" stroke-width="0.6"/>
</svg>
